solid OpenSCAD_Model
  facet normal 0.0617448 -0.705758 -0.705758
    outer loop
      vertex 1.73648 -9.84808 5
      vertex 0 -10 5
      vertex 0 -5 0
    endloop
  endfacet
  facet normal 0.705758 0.0617448 -0.705758
    outer loop
      vertex 10 0 5
      vertex 5 0 0
      vertex 9.84808 1.73648 5
    endloop
  endfacet
  facet normal 0.705758 0.0617448 -0.705758
    outer loop
      vertex 5 0 0
      vertex 4.92404 0.86824 0
      vertex 9.84808 1.73648 5
    endloop
  endfacet
  facet normal 0.684314 -0.183361 -0.705758
    outer loop
      vertex 9.39693 -3.4202 5
      vertex 4.92404 -0.86824 0
      vertex 9.84808 -1.73648 5
    endloop
  endfacet
  facet normal 0.684312 -0.183364 -0.705758
    outer loop
      vertex 4.92404 -0.86824 0
      vertex 9.39693 -3.4202 5
      vertex 4.69846 -1.7101 0
    endloop
  endfacet
  facet normal -0.642076 -0.299408 -0.705757
    outer loop
      vertex -8.66025 -5 5
      vertex -9.39693 -3.4202 5
      vertex -4.33013 -2.5 0
    endloop
  endfacet
  facet normal -0.58033 0.406354 -0.705758
    outer loop
      vertex -4.33013 2.5 0
      vertex -7.66044 6.42788 5
      vertex -3.83022 3.21394 0
    endloop
  endfacet
  facet normal -0.580332 0.406352 -0.705757
    outer loop
      vertex -7.66044 6.42788 5
      vertex -4.33013 2.5 0
      vertex -8.66025 5 5
    endloop
  endfacet
  facet normal 0.642076 -0.299408 -0.705757
    outer loop
      vertex 8.66025 -5 5
      vertex 4.33013 -2.5 0
      vertex 9.39693 -3.4202 5
    endloop
  endfacet
  facet normal 0.0617448 -0.705758 -0.705758
    outer loop
      vertex 1.73648 -9.84808 5
      vertex 0 -5 0
      vertex 0.86824 -4.92404 0
    endloop
  endfacet
  facet normal 0.0617448 0.705758 -0.705758
    outer loop
      vertex 1.73648 9.84808 5
      vertex 0 5 0
      vertex 0 10 5
    endloop
  endfacet
  facet normal 0.642078 -0.299401 -0.705758
    outer loop
      vertex 9.39693 -3.4202 5
      vertex 4.33013 -2.5 0
      vertex 4.69846 -1.7101 0
    endloop
  endfacet
  facet normal 0.705758 -0.0617448 -0.705758
    outer loop
      vertex 9.84808 -1.73648 5
      vertex 5 0 0
      vertex 10 0 5
    endloop
  endfacet
  facet normal 0.406352 -0.580332 -0.705757
    outer loop
      vertex 5 -8.66025 5
      vertex 3.21394 -3.83022 0
      vertex 6.42788 -7.66044 5
    endloop
  endfacet
  facet normal 0.406355 -0.58033 -0.705757
    outer loop
      vertex 3.21394 -3.83022 0
      vertex 5 -8.66025 5
      vertex 2.5 -4.33013 0
    endloop
  endfacet
  facet normal 0.299401 0.642078 -0.705758
    outer loop
      vertex 2.5 4.33013 0
      vertex 1.7101 4.69846 0
      vertex 3.4202 9.39693 5
    endloop
  endfacet
  facet normal -0.705758 0.0617448 -0.705758
    outer loop
      vertex -5 0 0
      vertex -9.84808 1.73648 5
      vertex -4.92404 0.86824 0
    endloop
  endfacet
  facet normal 0.500952 -0.500952 -0.705758
    outer loop
      vertex 6.42788 -7.66044 5
      vertex 3.83022 -3.21394 0
      vertex 7.66044 -6.42788 5
    endloop
  endfacet
  facet normal 0.500952 -0.500952 -0.705758
    outer loop
      vertex 3.83022 -3.21394 0
      vertex 6.42788 -7.66044 5
      vertex 3.21394 -3.83022 0
    endloop
  endfacet
  facet normal 0.580332 -0.406352 -0.705757
    outer loop
      vertex 7.66044 -6.42788 5
      vertex 4.33013 -2.5 0
      vertex 8.66025 -5 5
    endloop
  endfacet
  facet normal 0.58033 -0.406354 -0.705758
    outer loop
      vertex 4.33013 -2.5 0
      vertex 7.66044 -6.42788 5
      vertex 3.83022 -3.21394 0
    endloop
  endfacet
  facet normal 0.183361 -0.684313 -0.705758
    outer loop
      vertex 1.73648 -9.84808 5
      vertex 1.7101 -4.69846 0
      vertex 3.4202 -9.39693 5
    endloop
  endfacet
  facet normal 0.183365 -0.684313 -0.705757
    outer loop
      vertex 1.7101 -4.69846 0
      vertex 1.73648 -9.84808 5
      vertex 0.86824 -4.92404 0
    endloop
  endfacet
  facet normal 0.299408 -0.642076 -0.705757
    outer loop
      vertex 3.4202 -9.39693 5
      vertex 2.5 -4.33013 0
      vertex 5 -8.66025 5
    endloop
  endfacet
  facet normal 0.299401 -0.642078 -0.705758
    outer loop
      vertex 3.4202 -9.39693 5
      vertex 1.7101 -4.69846 0
      vertex 2.5 -4.33013 0
    endloop
  endfacet
  facet normal -0.684312 -0.183364 -0.705758
    outer loop
      vertex -9.39693 -3.4202 5
      vertex -4.92404 -0.86824 0
      vertex -4.69846 -1.7101 0
    endloop
  endfacet
  facet normal -0.684314 -0.183361 -0.705758
    outer loop
      vertex -4.92404 -0.86824 0
      vertex -9.39693 -3.4202 5
      vertex -9.84808 -1.73648 5
    endloop
  endfacet
  facet normal -0.58033 -0.406354 -0.705758
    outer loop
      vertex -7.66044 -6.42788 5
      vertex -4.33013 -2.5 0
      vertex -3.83022 -3.21394 0
    endloop
  endfacet
  facet normal -0.580332 -0.406352 -0.705757
    outer loop
      vertex -4.33013 -2.5 0
      vertex -7.66044 -6.42788 5
      vertex -8.66025 -5 5
    endloop
  endfacet
  facet normal -0.299408 -0.642076 -0.705757
    outer loop
      vertex -3.4202 -9.39693 5
      vertex -5 -8.66025 5
      vertex -2.5 -4.33013 0
    endloop
  endfacet
  facet normal 0.406352 0.580332 -0.705757
    outer loop
      vertex 3.21394 3.83022 0
      vertex 5 8.66025 5
      vertex 6.42788 7.66044 5
    endloop
  endfacet
  facet normal 0.406355 0.58033 -0.705757
    outer loop
      vertex 5 8.66025 5
      vertex 3.21394 3.83022 0
      vertex 2.5 4.33013 0
    endloop
  endfacet
  facet normal -0.642078 0.299401 -0.705758
    outer loop
      vertex -4.69846 1.7101 0
      vertex -9.39693 3.4202 5
      vertex -4.33013 2.5 0
    endloop
  endfacet
  facet normal -0.705758 -0.0617448 -0.705758
    outer loop
      vertex -4.92404 -0.86824 0
      vertex -9.84808 -1.73648 5
      vertex -5 0 0
    endloop
  endfacet
  facet normal 0 0 1
    outer loop
      vertex 4 0 5
      vertex 10 0 5
      vertex 9.84808 1.73648 5
    endloop
  endfacet
  facet normal 0 0 1
    outer loop
      vertex 3.93923 0.694592 5
      vertex 9.84808 1.73648 5
      vertex 9.39693 3.4202 5
    endloop
  endfacet
  facet normal 0 0 1
    outer loop
      vertex 10 0 5
      vertex 4 0 5
      vertex 9.84808 -1.73648 5
    endloop
  endfacet
  facet normal 0 0 1
    outer loop
      vertex 3.75877 1.36808 5
      vertex 9.39693 3.4202 5
      vertex 8.66025 5 5
    endloop
  endfacet
  facet normal -0 0 1
    outer loop
      vertex 3.93923 -0.694592 5
      vertex 9.84808 -1.73648 5
      vertex 4 0 5
    endloop
  endfacet
  facet normal 0 0 1
    outer loop
      vertex 3.4641 2 5
      vertex 8.66025 5 5
      vertex 7.66044 6.42788 5
    endloop
  endfacet
  facet normal 0 0 1
    outer loop
      vertex 9.84808 -1.73648 5
      vertex 3.93923 -0.694592 5
      vertex 9.39693 -3.4202 5
    endloop
  endfacet
  facet normal 0 0 1
    outer loop
      vertex 3.06418 2.57115 5
      vertex 7.66044 6.42788 5
      vertex 6.42788 7.66044 5
    endloop
  endfacet
  facet normal -0 0 1
    outer loop
      vertex 3.75877 -1.36808 5
      vertex 9.39693 -3.4202 5
      vertex 3.93923 -0.694592 5
    endloop
  endfacet
  facet normal 0 0 1
    outer loop
      vertex 2.57115 3.06418 5
      vertex 6.42788 7.66044 5
      vertex 5 8.66025 5
    endloop
  endfacet
  facet normal 0 0 1
    outer loop
      vertex 9.39693 -3.4202 5
      vertex 3.75877 -1.36808 5
      vertex 8.66025 -5 5
    endloop
  endfacet
  facet normal -0 0 1
    outer loop
      vertex 3.4641 -2 5
      vertex 8.66025 -5 5
      vertex 3.75877 -1.36808 5
    endloop
  endfacet
  facet normal 0 0 1
    outer loop
      vertex 9.84808 1.73648 5
      vertex 3.93923 0.694592 5
      vertex 4 0 5
    endloop
  endfacet
  facet normal 0 0 1
    outer loop
      vertex 9.39693 3.4202 5
      vertex 3.75877 1.36808 5
      vertex 3.93923 0.694592 5
    endloop
  endfacet
  facet normal 0 0 1
    outer loop
      vertex 8.66025 5 5
      vertex 3.4641 2 5
      vertex 3.75877 1.36808 5
    endloop
  endfacet
  facet normal 0 0 1
    outer loop
      vertex 2 3.4641 5
      vertex 5 8.66025 5
      vertex 3.4202 9.39693 5
    endloop
  endfacet
  facet normal 0 0 1
    outer loop
      vertex 7.66044 6.42788 5
      vertex 3.06418 2.57115 5
      vertex 3.4641 2 5
    endloop
  endfacet
  facet normal 0 0 1
    outer loop
      vertex 6.42788 7.66044 5
      vertex 2.57115 3.06418 5
      vertex 3.06418 2.57115 5
    endloop
  endfacet
  facet normal 0 0 1
    outer loop
      vertex 5 8.66025 5
      vertex 2 3.4641 5
      vertex 2.57115 3.06418 5
    endloop
  endfacet
  facet normal 0 0 1
    outer loop
      vertex 1.36808 3.75877 5
      vertex 3.4202 9.39693 5
      vertex 1.73648 9.84808 5
    endloop
  endfacet
  facet normal 0 0 1
    outer loop
      vertex 3.4202 9.39693 5
      vertex 1.36808 3.75877 5
      vertex 2 3.4641 5
    endloop
  endfacet
  facet normal 0 0 1
    outer loop
      vertex 1.73648 9.84808 5
      vertex 0.694592 3.93923 5
      vertex 1.36808 3.75877 5
    endloop
  endfacet
  facet normal 0 0 1
    outer loop
      vertex 0 10 5
      vertex 0.694592 3.93923 5
      vertex 1.73648 9.84808 5
    endloop
  endfacet
  facet normal 0 0 1
    outer loop
      vertex 0 10 5
      vertex 0 4 5
      vertex 0.694592 3.93923 5
    endloop
  endfacet
  facet normal 0 0 1
    outer loop
      vertex 0 10 5
      vertex -0.694592 3.93923 5
      vertex 0 4 5
    endloop
  endfacet
  facet normal -0 0 1
    outer loop
      vertex -1.73648 9.84808 5
      vertex -0.694592 3.93923 5
      vertex 0 10 5
    endloop
  endfacet
  facet normal 0 0 1
    outer loop
      vertex -0.694592 3.93923 5
      vertex -1.73648 9.84808 5
      vertex -1.36808 3.75877 5
    endloop
  endfacet
  facet normal -0 0 1
    outer loop
      vertex -3.4202 9.39693 5
      vertex -1.36808 3.75877 5
      vertex -1.73648 9.84808 5
    endloop
  endfacet
  facet normal 0 0 1
    outer loop
      vertex -1.36808 3.75877 5
      vertex -3.4202 9.39693 5
      vertex -2 3.4641 5
    endloop
  endfacet
  facet normal -0 0 1
    outer loop
      vertex -5 8.66025 5
      vertex -2 3.4641 5
      vertex -3.4202 9.39693 5
    endloop
  endfacet
  facet normal 0 0 1
    outer loop
      vertex -2 3.4641 5
      vertex -5 8.66025 5
      vertex -2.57115 3.06418 5
    endloop
  endfacet
  facet normal -0 0 1
    outer loop
      vertex -6.42788 7.66044 5
      vertex -2.57115 3.06418 5
      vertex -5 8.66025 5
    endloop
  endfacet
  facet normal 0 0 1
    outer loop
      vertex -2.57115 3.06418 5
      vertex -6.42788 7.66044 5
      vertex -3.06418 2.57115 5
    endloop
  endfacet
  facet normal -0 0 1
    outer loop
      vertex -7.66044 6.42788 5
      vertex -3.06418 2.57115 5
      vertex -6.42788 7.66044 5
    endloop
  endfacet
  facet normal 0 0 1
    outer loop
      vertex -3.06418 2.57115 5
      vertex -7.66044 6.42788 5
      vertex -3.4641 2 5
    endloop
  endfacet
  facet normal -0 0 1
    outer loop
      vertex -8.66025 5 5
      vertex -3.4641 2 5
      vertex -7.66044 6.42788 5
    endloop
  endfacet
  facet normal 0 0 1
    outer loop
      vertex 8.66025 -5 5
      vertex 3.4641 -2 5
      vertex 7.66044 -6.42788 5
    endloop
  endfacet
  facet normal -0 0 1
    outer loop
      vertex 3.06418 -2.57115 5
      vertex 7.66044 -6.42788 5
      vertex 3.4641 -2 5
    endloop
  endfacet
  facet normal 0 0 1
    outer loop
      vertex 7.66044 -6.42788 5
      vertex 3.06418 -2.57115 5
      vertex 6.42788 -7.66044 5
    endloop
  endfacet
  facet normal -0 0 1
    outer loop
      vertex 2.57115 -3.06418 5
      vertex 6.42788 -7.66044 5
      vertex 3.06418 -2.57115 5
    endloop
  endfacet
  facet normal 0 0 1
    outer loop
      vertex 6.42788 -7.66044 5
      vertex 2.57115 -3.06418 5
      vertex 5 -8.66025 5
    endloop
  endfacet
  facet normal -0 0 1
    outer loop
      vertex 2 -3.4641 5
      vertex 5 -8.66025 5
      vertex 2.57115 -3.06418 5
    endloop
  endfacet
  facet normal 0 0 1
    outer loop
      vertex 5 -8.66025 5
      vertex 2 -3.4641 5
      vertex 3.4202 -9.39693 5
    endloop
  endfacet
  facet normal -0 0 1
    outer loop
      vertex 1.36808 -3.75877 5
      vertex 3.4202 -9.39693 5
      vertex 2 -3.4641 5
    endloop
  endfacet
  facet normal 0 0 1
    outer loop
      vertex 3.4202 -9.39693 5
      vertex 1.36808 -3.75877 5
      vertex 1.73648 -9.84808 5
    endloop
  endfacet
  facet normal -0 0 1
    outer loop
      vertex 0.694592 -3.93923 5
      vertex 1.73648 -9.84808 5
      vertex 1.36808 -3.75877 5
    endloop
  endfacet
  facet normal -0 0 1
    outer loop
      vertex 0 -4 5
      vertex 1.73648 -9.84808 5
      vertex 0.694592 -3.93923 5
    endloop
  endfacet
  facet normal 0 0 1
    outer loop
      vertex 0 -4 5
      vertex 0 -10 5
      vertex 1.73648 -9.84808 5
    endloop
  endfacet
  facet normal 0 0 1
    outer loop
      vertex -0.694592 -3.93923 5
      vertex 0 -10 5
      vertex 0 -4 5
    endloop
  endfacet
  facet normal 0 0 1
    outer loop
      vertex -1.73648 -9.84808 5
      vertex -0.694592 -3.93923 5
      vertex -1.36808 -3.75877 5
    endloop
  endfacet
  facet normal 0 0 1
    outer loop
      vertex -0.694592 -3.93923 5
      vertex -1.73648 -9.84808 5
      vertex 0 -10 5
    endloop
  endfacet
  facet normal 0 0 1
    outer loop
      vertex -3.4202 -9.39693 5
      vertex -1.36808 -3.75877 5
      vertex -2 -3.4641 5
    endloop
  endfacet
  facet normal 0 0 1
    outer loop
      vertex -5 -8.66025 5
      vertex -2 -3.4641 5
      vertex -2.57115 -3.06418 5
    endloop
  endfacet
  facet normal 0 0 1
    outer loop
      vertex -6.42788 -7.66044 5
      vertex -2.57115 -3.06418 5
      vertex -3.06418 -2.57115 5
    endloop
  endfacet
  facet normal 0 0 1
    outer loop
      vertex -1.36808 -3.75877 5
      vertex -3.4202 -9.39693 5
      vertex -1.73648 -9.84808 5
    endloop
  endfacet
  facet normal 0 0 1
    outer loop
      vertex -7.66044 -6.42788 5
      vertex -3.06418 -2.57115 5
      vertex -3.4641 -2 5
    endloop
  endfacet
  facet normal 0 0 1
    outer loop
      vertex -8.66025 -5 5
      vertex -3.4641 -2 5
      vertex -3.75877 -1.36808 5
    endloop
  endfacet
  facet normal 0 0 1
    outer loop
      vertex -9.39693 -3.4202 5
      vertex -3.75877 -1.36808 5
      vertex -3.93923 -0.694592 5
    endloop
  endfacet
  facet normal 0 0 1
    outer loop
      vertex -9.84808 -1.73648 5
      vertex -3.93923 -0.694592 5
      vertex -4 0 5
    endloop
  endfacet
  facet normal 0 0 1
    outer loop
      vertex -3.4641 2 5
      vertex -8.66025 5 5
      vertex -3.75877 1.36808 5
    endloop
  endfacet
  facet normal 0 0 1
    outer loop
      vertex -2 -3.4641 5
      vertex -5 -8.66025 5
      vertex -3.4202 -9.39693 5
    endloop
  endfacet
  facet normal -0 0 1
    outer loop
      vertex -9.39693 3.4202 5
      vertex -3.75877 1.36808 5
      vertex -8.66025 5 5
    endloop
  endfacet
  facet normal 0 0 1
    outer loop
      vertex -2.57115 -3.06418 5
      vertex -6.42788 -7.66044 5
      vertex -5 -8.66025 5
    endloop
  endfacet
  facet normal 0 0 1
    outer loop
      vertex -3.75877 1.36808 5
      vertex -9.39693 3.4202 5
      vertex -3.93923 0.694592 5
    endloop
  endfacet
  facet normal 0 0 1
    outer loop
      vertex -3.06418 -2.57115 5
      vertex -7.66044 -6.42788 5
      vertex -6.42788 -7.66044 5
    endloop
  endfacet
  facet normal -0 0 1
    outer loop
      vertex -9.84808 1.73648 5
      vertex -3.93923 0.694592 5
      vertex -9.39693 3.4202 5
    endloop
  endfacet
  facet normal 0 0 1
    outer loop
      vertex -3.4641 -2 5
      vertex -8.66025 -5 5
      vertex -7.66044 -6.42788 5
    endloop
  endfacet
  facet normal 0 0 1
    outer loop
      vertex -3.93923 0.694592 5
      vertex -9.84808 1.73648 5
      vertex -4 0 5
    endloop
  endfacet
  facet normal 0 0 1
    outer loop
      vertex -3.75877 -1.36808 5
      vertex -9.39693 -3.4202 5
      vertex -8.66025 -5 5
    endloop
  endfacet
  facet normal 0 0 1
    outer loop
      vertex -10 0 5
      vertex -4 0 5
      vertex -9.84808 1.73648 5
    endloop
  endfacet
  facet normal 0 0 1
    outer loop
      vertex -3.93923 -0.694592 5
      vertex -9.84808 -1.73648 5
      vertex -9.39693 -3.4202 5
    endloop
  endfacet
  facet normal 0 0 1
    outer loop
      vertex -4 0 5
      vertex -10 0 5
      vertex -9.84808 -1.73648 5
    endloop
  endfacet
  facet normal 0.705758 -0.0617448 -0.705758
    outer loop
      vertex 9.84808 -1.73648 5
      vertex 4.92404 -0.86824 0
      vertex 5 0 0
    endloop
  endfacet
  facet normal -0.500952 -0.500952 -0.705758
    outer loop
      vertex -6.42788 -7.66044 5
      vertex -3.83022 -3.21394 0
      vertex -3.21394 -3.83022 0
    endloop
  endfacet
  facet normal -0.500952 -0.500952 -0.705758
    outer loop
      vertex -3.83022 -3.21394 0
      vertex -6.42788 -7.66044 5
      vertex -7.66044 -6.42788 5
    endloop
  endfacet
  facet normal -0.0617448 -0.705758 -0.705758
    outer loop
      vertex 0 -10 5
      vertex -1.73648 -9.84808 5
      vertex 0 -5 0
    endloop
  endfacet
  facet normal -0.299401 -0.642078 -0.705758
    outer loop
      vertex -1.7101 -4.69846 0
      vertex -3.4202 -9.39693 5
      vertex -2.5 -4.33013 0
    endloop
  endfacet
  facet normal -0.183365 -0.684313 -0.705757
    outer loop
      vertex -1.73648 -9.84808 5
      vertex -1.7101 -4.69846 0
      vertex -0.86824 -4.92404 0
    endloop
  endfacet
  facet normal -0.183361 -0.684313 -0.705758
    outer loop
      vertex -1.7101 -4.69846 0
      vertex -1.73648 -9.84808 5
      vertex -3.4202 -9.39693 5
    endloop
  endfacet
  facet normal -0.406355 -0.58033 -0.705757
    outer loop
      vertex -5 -8.66025 5
      vertex -3.21394 -3.83022 0
      vertex -2.5 -4.33013 0
    endloop
  endfacet
  facet normal -0.406352 -0.580332 -0.705757
    outer loop
      vertex -3.21394 -3.83022 0
      vertex -5 -8.66025 5
      vertex -6.42788 -7.66044 5
    endloop
  endfacet
  facet normal 0.684314 0.183361 -0.705758
    outer loop
      vertex 4.92404 0.86824 0
      vertex 9.39693 3.4202 5
      vertex 9.84808 1.73648 5
    endloop
  endfacet
  facet normal 0.684312 0.183364 -0.705758
    outer loop
      vertex 9.39693 3.4202 5
      vertex 4.92404 0.86824 0
      vertex 4.69846 1.7101 0
    endloop
  endfacet
  facet normal -0.299408 0.642076 -0.705757
    outer loop
      vertex -2.5 4.33013 0
      vertex -5 8.66025 5
      vertex -3.4202 9.39693 5
    endloop
  endfacet
  facet normal -0.642076 0.299408 -0.705757
    outer loop
      vertex -4.33013 2.5 0
      vertex -9.39693 3.4202 5
      vertex -8.66025 5 5
    endloop
  endfacet
  facet normal -0.705758 -0.0617448 -0.705758
    outer loop
      vertex -9.84808 -1.73648 5
      vertex -10 0 5
      vertex -5 0 0
    endloop
  endfacet
  facet normal -0.705758 0.0617448 -0.705758
    outer loop
      vertex -5 0 0
      vertex -10 0 5
      vertex -9.84808 1.73648 5
    endloop
  endfacet
  facet normal -0.642078 -0.299401 -0.705758
    outer loop
      vertex -4.33013 -2.5 0
      vertex -9.39693 -3.4202 5
      vertex -4.69846 -1.7101 0
    endloop
  endfacet
  facet normal -0.0617448 -0.705758 -0.705758
    outer loop
      vertex 0 -5 0
      vertex -1.73648 -9.84808 5
      vertex -0.86824 -4.92404 0
    endloop
  endfacet
  facet normal -0.0617448 0.705758 -0.705758
    outer loop
      vertex -0.86824 4.92404 0
      vertex -1.73648 9.84808 5
      vertex 0 5 0
    endloop
  endfacet
  facet normal -0.0617448 0.705758 -0.705758
    outer loop
      vertex 0 5 0
      vertex -1.73648 9.84808 5
      vertex 0 10 5
    endloop
  endfacet
  facet normal 0.299408 0.642076 -0.705757
    outer loop
      vertex 5 8.66025 5
      vertex 2.5 4.33013 0
      vertex 3.4202 9.39693 5
    endloop
  endfacet
  facet normal -0.299401 0.642078 -0.705758
    outer loop
      vertex -2.5 4.33013 0
      vertex -3.4202 9.39693 5
      vertex -1.7101 4.69846 0
    endloop
  endfacet
  facet normal -0.684312 0.183364 -0.705758
    outer loop
      vertex -4.92404 0.86824 0
      vertex -9.39693 3.4202 5
      vertex -4.69846 1.7101 0
    endloop
  endfacet
  facet normal -0.684314 0.183361 -0.705758
    outer loop
      vertex -9.39693 3.4202 5
      vertex -4.92404 0.86824 0
      vertex -9.84808 1.73648 5
    endloop
  endfacet
  facet normal 0 0 -1
    outer loop
      vertex 2 0 0
      vertex 5 0 0
      vertex 4.92404 -0.86824 0
    endloop
  endfacet
  facet normal 0 0 -1
    outer loop
      vertex 1.96961 -0.347296 0
      vertex 4.92404 -0.86824 0
      vertex 4.69846 -1.7101 0
    endloop
  endfacet
  facet normal 0 0 -1
    outer loop
      vertex 5 0 0
      vertex 2 0 0
      vertex 4.92404 0.86824 0
    endloop
  endfacet
  facet normal 0 0 -1
    outer loop
      vertex 1.87938 -0.68404 0
      vertex 4.69846 -1.7101 0
      vertex 4.33013 -2.5 0
    endloop
  endfacet
  facet normal 0 0 -1
    outer loop
      vertex 1.96961 0.347296 0
      vertex 4.92404 0.86824 0
      vertex 2 0 0
    endloop
  endfacet
  facet normal 0 0 -1
    outer loop
      vertex 1.73205 -1 0
      vertex 4.33013 -2.5 0
      vertex 3.83022 -3.21394 0
    endloop
  endfacet
  facet normal -0 0 -1
    outer loop
      vertex 4.92404 0.86824 0
      vertex 1.96961 0.347296 0
      vertex 4.69846 1.7101 0
    endloop
  endfacet
  facet normal 0 0 -1
    outer loop
      vertex 1.53209 -1.28557 0
      vertex 3.83022 -3.21394 0
      vertex 3.21394 -3.83022 0
    endloop
  endfacet
  facet normal 0 0 -1
    outer loop
      vertex 1.87938 0.68404 0
      vertex 4.69846 1.7101 0
      vertex 1.96961 0.347296 0
    endloop
  endfacet
  facet normal 0 0 -1
    outer loop
      vertex 1.28557 -1.53209 0
      vertex 3.21394 -3.83022 0
      vertex 2.5 -4.33013 0
    endloop
  endfacet
  facet normal -0 0 -1
    outer loop
      vertex 4.69846 1.7101 0
      vertex 1.87938 0.68404 0
      vertex 4.33013 2.5 0
    endloop
  endfacet
  facet normal 0 0 -1
    outer loop
      vertex 1.73205 1 0
      vertex 4.33013 2.5 0
      vertex 1.87938 0.68404 0
    endloop
  endfacet
  facet normal 0 0 -1
    outer loop
      vertex 4.92404 -0.86824 0
      vertex 1.96961 -0.347296 0
      vertex 2 0 0
    endloop
  endfacet
  facet normal 0 0 -1
    outer loop
      vertex 4.69846 -1.7101 0
      vertex 1.87938 -0.68404 0
      vertex 1.96961 -0.347296 0
    endloop
  endfacet
  facet normal 0 0 -1
    outer loop
      vertex 4.33013 -2.5 0
      vertex 1.73205 -1 0
      vertex 1.87938 -0.68404 0
    endloop
  endfacet
  facet normal 0 0 -1
    outer loop
      vertex 1 -1.73205 0
      vertex 2.5 -4.33013 0
      vertex 1.7101 -4.69846 0
    endloop
  endfacet
  facet normal 0 0 -1
    outer loop
      vertex 3.83022 -3.21394 0
      vertex 1.53209 -1.28557 0
      vertex 1.73205 -1 0
    endloop
  endfacet
  facet normal 0 0 -1
    outer loop
      vertex 3.21394 -3.83022 0
      vertex 1.28557 -1.53209 0
      vertex 1.53209 -1.28557 0
    endloop
  endfacet
  facet normal 0 0 -1
    outer loop
      vertex 2.5 -4.33013 0
      vertex 1 -1.73205 0
      vertex 1.28557 -1.53209 0
    endloop
  endfacet
  facet normal 0 0 -1
    outer loop
      vertex 0.68404 -1.87938 0
      vertex 1.7101 -4.69846 0
      vertex 0.86824 -4.92404 0
    endloop
  endfacet
  facet normal 0 0 -1
    outer loop
      vertex 1.7101 -4.69846 0
      vertex 0.68404 -1.87938 0
      vertex 1 -1.73205 0
    endloop
  endfacet
  facet normal 0 0 -1
    outer loop
      vertex 0.86824 -4.92404 0
      vertex 0.347296 -1.96961 0
      vertex 0.68404 -1.87938 0
    endloop
  endfacet
  facet normal 0 0 -1
    outer loop
      vertex 0 -5 0
      vertex 0.347296 -1.96961 0
      vertex 0.86824 -4.92404 0
    endloop
  endfacet
  facet normal 0 0 -1
    outer loop
      vertex 0 -5 0
      vertex 0 -2 0
      vertex 0.347296 -1.96961 0
    endloop
  endfacet
  facet normal 0 0 -1
    outer loop
      vertex 0 -5 0
      vertex -0.347296 -1.96961 0
      vertex 0 -2 0
    endloop
  endfacet
  facet normal 0 0 -1
    outer loop
      vertex -0.86824 -4.92404 0
      vertex -0.347296 -1.96961 0
      vertex 0 -5 0
    endloop
  endfacet
  facet normal -0 0 -1
    outer loop
      vertex -0.347296 -1.96961 0
      vertex -0.86824 -4.92404 0
      vertex -0.68404 -1.87938 0
    endloop
  endfacet
  facet normal 0 0 -1
    outer loop
      vertex -1.7101 -4.69846 0
      vertex -0.68404 -1.87938 0
      vertex -0.86824 -4.92404 0
    endloop
  endfacet
  facet normal -0 0 -1
    outer loop
      vertex -0.68404 -1.87938 0
      vertex -1.7101 -4.69846 0
      vertex -1 -1.73205 0
    endloop
  endfacet
  facet normal 0 0 -1
    outer loop
      vertex -2.5 -4.33013 0
      vertex -1 -1.73205 0
      vertex -1.7101 -4.69846 0
    endloop
  endfacet
  facet normal -0 0 -1
    outer loop
      vertex -1 -1.73205 0
      vertex -2.5 -4.33013 0
      vertex -1.28557 -1.53209 0
    endloop
  endfacet
  facet normal 0 0 -1
    outer loop
      vertex -3.21394 -3.83022 0
      vertex -1.28557 -1.53209 0
      vertex -2.5 -4.33013 0
    endloop
  endfacet
  facet normal -0 0 -1
    outer loop
      vertex -1.28557 -1.53209 0
      vertex -3.21394 -3.83022 0
      vertex -1.53209 -1.28557 0
    endloop
  endfacet
  facet normal 0 0 -1
    outer loop
      vertex -3.83022 -3.21394 0
      vertex -1.53209 -1.28557 0
      vertex -3.21394 -3.83022 0
    endloop
  endfacet
  facet normal -0 0 -1
    outer loop
      vertex -1.53209 -1.28557 0
      vertex -3.83022 -3.21394 0
      vertex -1.73205 -1 0
    endloop
  endfacet
  facet normal 0 0 -1
    outer loop
      vertex -4.33013 -2.5 0
      vertex -1.73205 -1 0
      vertex -3.83022 -3.21394 0
    endloop
  endfacet
  facet normal -0 0 -1
    outer loop
      vertex 4.33013 2.5 0
      vertex 1.73205 1 0
      vertex 3.83022 3.21394 0
    endloop
  endfacet
  facet normal 0 0 -1
    outer loop
      vertex 1.53209 1.28557 0
      vertex 3.83022 3.21394 0
      vertex 1.73205 1 0
    endloop
  endfacet
  facet normal -0 0 -1
    outer loop
      vertex 3.83022 3.21394 0
      vertex 1.53209 1.28557 0
      vertex 3.21394 3.83022 0
    endloop
  endfacet
  facet normal 0 0 -1
    outer loop
      vertex 1.28557 1.53209 0
      vertex 3.21394 3.83022 0
      vertex 1.53209 1.28557 0
    endloop
  endfacet
  facet normal -0 0 -1
    outer loop
      vertex 3.21394 3.83022 0
      vertex 1.28557 1.53209 0
      vertex 2.5 4.33013 0
    endloop
  endfacet
  facet normal 0 0 -1
    outer loop
      vertex 1 1.73205 0
      vertex 2.5 4.33013 0
      vertex 1.28557 1.53209 0
    endloop
  endfacet
  facet normal -0 0 -1
    outer loop
      vertex 2.5 4.33013 0
      vertex 1 1.73205 0
      vertex 1.7101 4.69846 0
    endloop
  endfacet
  facet normal 0 0 -1
    outer loop
      vertex 0.68404 1.87938 0
      vertex 1.7101 4.69846 0
      vertex 1 1.73205 0
    endloop
  endfacet
  facet normal -0 0 -1
    outer loop
      vertex 1.7101 4.69846 0
      vertex 0.68404 1.87938 0
      vertex 0.86824 4.92404 0
    endloop
  endfacet
  facet normal 0 0 -1
    outer loop
      vertex 0.347296 1.96961 0
      vertex 0.86824 4.92404 0
      vertex 0.68404 1.87938 0
    endloop
  endfacet
  facet normal 0 0 -1
    outer loop
      vertex 0 2 0
      vertex 0.86824 4.92404 0
      vertex 0.347296 1.96961 0
    endloop
  endfacet
  facet normal 0 0 -1
    outer loop
      vertex 0 2 0
      vertex 0 5 0
      vertex 0.86824 4.92404 0
    endloop
  endfacet
  facet normal 0 0 -1
    outer loop
      vertex -0.347296 1.96961 0
      vertex 0 5 0
      vertex 0 2 0
    endloop
  endfacet
  facet normal 0 0 -1
    outer loop
      vertex -0.86824 4.92404 0
      vertex -0.347296 1.96961 0
      vertex -0.68404 1.87938 0
    endloop
  endfacet
  facet normal 0 0 -1
    outer loop
      vertex -0.347296 1.96961 0
      vertex -0.86824 4.92404 0
      vertex 0 5 0
    endloop
  endfacet
  facet normal 0 0 -1
    outer loop
      vertex -1.7101 4.69846 0
      vertex -0.68404 1.87938 0
      vertex -1 1.73205 0
    endloop
  endfacet
  facet normal 0 0 -1
    outer loop
      vertex -2.5 4.33013 0
      vertex -1 1.73205 0
      vertex -1.28557 1.53209 0
    endloop
  endfacet
  facet normal 0 0 -1
    outer loop
      vertex -3.21394 3.83022 0
      vertex -1.28557 1.53209 0
      vertex -1.53209 1.28557 0
    endloop
  endfacet
  facet normal 0 0 -1
    outer loop
      vertex -0.68404 1.87938 0
      vertex -1.7101 4.69846 0
      vertex -0.86824 4.92404 0
    endloop
  endfacet
  facet normal 0 0 -1
    outer loop
      vertex -3.83022 3.21394 0
      vertex -1.53209 1.28557 0
      vertex -1.73205 1 0
    endloop
  endfacet
  facet normal 0 0 -1
    outer loop
      vertex -4.33013 2.5 0
      vertex -1.73205 1 0
      vertex -1.87938 0.68404 0
    endloop
  endfacet
  facet normal 0 0 -1
    outer loop
      vertex -4.69846 1.7101 0
      vertex -1.87938 0.68404 0
      vertex -1.96961 0.347296 0
    endloop
  endfacet
  facet normal 0 0 -1
    outer loop
      vertex -4.92404 0.86824 0
      vertex -1.96961 0.347296 0
      vertex -2 0 0
    endloop
  endfacet
  facet normal -0 0 -1
    outer loop
      vertex -1.73205 -1 0
      vertex -4.33013 -2.5 0
      vertex -1.87938 -0.68404 0
    endloop
  endfacet
  facet normal 0 0 -1
    outer loop
      vertex -1 1.73205 0
      vertex -2.5 4.33013 0
      vertex -1.7101 4.69846 0
    endloop
  endfacet
  facet normal 0 0 -1
    outer loop
      vertex -4.69846 -1.7101 0
      vertex -1.87938 -0.68404 0
      vertex -4.33013 -2.5 0
    endloop
  endfacet
  facet normal 0 0 -1
    outer loop
      vertex -1.28557 1.53209 0
      vertex -3.21394 3.83022 0
      vertex -2.5 4.33013 0
    endloop
  endfacet
  facet normal -0 0 -1
    outer loop
      vertex -1.87938 -0.68404 0
      vertex -4.69846 -1.7101 0
      vertex -1.96961 -0.347296 0
    endloop
  endfacet
  facet normal 0 0 -1
    outer loop
      vertex -1.53209 1.28557 0
      vertex -3.83022 3.21394 0
      vertex -3.21394 3.83022 0
    endloop
  endfacet
  facet normal 0 0 -1
    outer loop
      vertex -4.92404 -0.86824 0
      vertex -1.96961 -0.347296 0
      vertex -4.69846 -1.7101 0
    endloop
  endfacet
  facet normal 0 0 -1
    outer loop
      vertex -1.73205 1 0
      vertex -4.33013 2.5 0
      vertex -3.83022 3.21394 0
    endloop
  endfacet
  facet normal -0 0 -1
    outer loop
      vertex -1.96961 -0.347296 0
      vertex -4.92404 -0.86824 0
      vertex -2 0 0
    endloop
  endfacet
  facet normal 0 0 -1
    outer loop
      vertex -1.87938 0.68404 0
      vertex -4.69846 1.7101 0
      vertex -4.33013 2.5 0
    endloop
  endfacet
  facet normal 0 0 -1
    outer loop
      vertex -5 0 0
      vertex -2 0 0
      vertex -4.92404 -0.86824 0
    endloop
  endfacet
  facet normal 0 0 -1
    outer loop
      vertex -1.96961 0.347296 0
      vertex -4.92404 0.86824 0
      vertex -4.69846 1.7101 0
    endloop
  endfacet
  facet normal 0 0 -1
    outer loop
      vertex -2 0 0
      vertex -5 0 0
      vertex -4.92404 0.86824 0
    endloop
  endfacet
  facet normal 0.0617448 0.705758 -0.705758
    outer loop
      vertex 0.86824 4.92404 0
      vertex 0 5 0
      vertex 1.73648 9.84808 5
    endloop
  endfacet
  facet normal 0.183361 0.684313 -0.705758
    outer loop
      vertex 1.7101 4.69846 0
      vertex 1.73648 9.84808 5
      vertex 3.4202 9.39693 5
    endloop
  endfacet
  facet normal 0.183365 0.684313 -0.705757
    outer loop
      vertex 1.73648 9.84808 5
      vertex 1.7101 4.69846 0
      vertex 0.86824 4.92404 0
    endloop
  endfacet
  facet normal 0.580332 0.406352 -0.705757
    outer loop
      vertex 4.33013 2.5 0
      vertex 7.66044 6.42788 5
      vertex 8.66025 5 5
    endloop
  endfacet
  facet normal 0.58033 0.406354 -0.705758
    outer loop
      vertex 7.66044 6.42788 5
      vertex 4.33013 2.5 0
      vertex 3.83022 3.21394 0
    endloop
  endfacet
  facet normal 0.642076 0.299408 -0.705757
    outer loop
      vertex 9.39693 3.4202 5
      vertex 4.33013 2.5 0
      vertex 8.66025 5 5
    endloop
  endfacet
  facet normal -0.406355 0.58033 -0.705757
    outer loop
      vertex -3.21394 3.83022 0
      vertex -5 8.66025 5
      vertex -2.5 4.33013 0
    endloop
  endfacet
  facet normal -0.406352 0.580332 -0.705757
    outer loop
      vertex -5 8.66025 5
      vertex -3.21394 3.83022 0
      vertex -6.42788 7.66044 5
    endloop
  endfacet
  facet normal -0.500952 0.500952 -0.705758
    outer loop
      vertex -3.83022 3.21394 0
      vertex -6.42788 7.66044 5
      vertex -3.21394 3.83022 0
    endloop
  endfacet
  facet normal -0.500952 0.500952 -0.705758
    outer loop
      vertex -6.42788 7.66044 5
      vertex -3.83022 3.21394 0
      vertex -7.66044 6.42788 5
    endloop
  endfacet
  facet normal -0.183365 0.684313 -0.705757
    outer loop
      vertex -1.7101 4.69846 0
      vertex -1.73648 9.84808 5
      vertex -0.86824 4.92404 0
    endloop
  endfacet
  facet normal -0.183361 0.684313 -0.705758
    outer loop
      vertex -1.73648 9.84808 5
      vertex -1.7101 4.69846 0
      vertex -3.4202 9.39693 5
    endloop
  endfacet
  facet normal 0.500952 0.500952 -0.705758
    outer loop
      vertex 3.83022 3.21394 0
      vertex 6.42788 7.66044 5
      vertex 7.66044 6.42788 5
    endloop
  endfacet
  facet normal 0.500952 0.500952 -0.705758
    outer loop
      vertex 6.42788 7.66044 5
      vertex 3.83022 3.21394 0
      vertex 3.21394 3.83022 0
    endloop
  endfacet
  facet normal 0.642078 0.299401 -0.705758
    outer loop
      vertex 4.69846 1.7101 0
      vertex 4.33013 2.5 0
      vertex 9.39693 3.4202 5
    endloop
  endfacet
  facet normal -0.57358 -0.81915 0
    outer loop
      vertex 1 1.73205 0
      vertex 1.28557 1.53209 3
      vertex 1 1.73205 3
    endloop
  endfacet
  facet normal -0.57358 -0.81915 -0
    outer loop
      vertex 1.28557 1.53209 3
      vertex 1 1.73205 0
      vertex 1.28557 1.53209 0
    endloop
  endfacet
  facet normal 0.965926 -0.258818 0
    outer loop
      vertex -1.96961 0.347296 3
      vertex -1.87938 0.68404 0
      vertex -1.87938 0.68404 3
    endloop
  endfacet
  facet normal 0.965926 -0.258818 0
    outer loop
      vertex -1.87938 0.68404 0
      vertex -1.96961 0.347296 3
      vertex -1.96961 0.347296 0
    endloop
  endfacet
  facet normal 0.258818 0.965926 -0
    outer loop
      vertex -0.347296 -1.96961 0
      vertex -0.68404 -1.87938 3
      vertex -0.347296 -1.96961 3
    endloop
  endfacet
  facet normal 0.258818 0.965926 0
    outer loop
      vertex -0.68404 -1.87938 3
      vertex -0.347296 -1.96961 0
      vertex -0.68404 -1.87938 0
    endloop
  endfacet
  facet normal 0.258818 -0.965926 0
    outer loop
      vertex -0.68404 1.87938 0
      vertex -0.347296 1.96961 3
      vertex -0.68404 1.87938 3
    endloop
  endfacet
  facet normal 0.258818 -0.965926 0
    outer loop
      vertex -0.347296 1.96961 3
      vertex -0.68404 1.87938 0
      vertex -0.347296 1.96961 0
    endloop
  endfacet
  facet normal 0.906313 -0.422607 0
    outer loop
      vertex -1.87938 0.68404 3
      vertex -1.73205 1 0
      vertex -1.73205 1 3
    endloop
  endfacet
  facet normal 0.906313 -0.422607 0
    outer loop
      vertex -1.73205 1 0
      vertex -1.87938 0.68404 3
      vertex -1.87938 0.68404 0
    endloop
  endfacet
  facet normal 0.906313 0.422607 0
    outer loop
      vertex -1.73205 -1 3
      vertex -1.87938 -0.68404 0
      vertex -1.87938 -0.68404 3
    endloop
  endfacet
  facet normal 0.906313 0.422607 0
    outer loop
      vertex -1.87938 -0.68404 0
      vertex -1.73205 -1 3
      vertex -1.73205 -1 0
    endloop
  endfacet
  facet normal -0.906313 -0.422607 0
    outer loop
      vertex 1.87938 0.68404 0
      vertex 1.73205 1 3
      vertex 1.73205 1 0
    endloop
  endfacet
  facet normal -0.906313 -0.422607 0
    outer loop
      vertex 1.73205 1 3
      vertex 1.87938 0.68404 0
      vertex 1.87938 0.68404 3
    endloop
  endfacet
  facet normal -0.81915 -0.57358 0
    outer loop
      vertex 1.73205 1 0
      vertex 1.53209 1.28557 3
      vertex 1.53209 1.28557 0
    endloop
  endfacet
  facet normal -0.81915 -0.57358 0
    outer loop
      vertex 1.53209 1.28557 3
      vertex 1.73205 1 0
      vertex 1.73205 1 3
    endloop
  endfacet
  facet normal -0.707107 -0.707107 0
    outer loop
      vertex 1.53209 1.28557 0
      vertex 1.28557 1.53209 3
      vertex 1.28557 1.53209 0
    endloop
  endfacet
  facet normal -0.707107 -0.707107 0
    outer loop
      vertex 1.28557 1.53209 3
      vertex 1.53209 1.28557 0
      vertex 1.53209 1.28557 3
    endloop
  endfacet
  facet normal -0.422607 -0.906313 0
    outer loop
      vertex 0.68404 1.87938 0
      vertex 1 1.73205 3
      vertex 0.68404 1.87938 3
    endloop
  endfacet
  facet normal -0.422607 -0.906313 -0
    outer loop
      vertex 1 1.73205 3
      vertex 0.68404 1.87938 0
      vertex 1 1.73205 0
    endloop
  endfacet
  facet normal -0.0871715 -0.996193 0
    outer loop
      vertex 0 2 0
      vertex 0.347296 1.96961 3
      vertex 0 2 3
    endloop
  endfacet
  facet normal -0.0871715 -0.996193 -0
    outer loop
      vertex 0.347296 1.96961 3
      vertex 0 2 0
      vertex 0.347296 1.96961 0
    endloop
  endfacet
  facet normal -0.258818 -0.965926 0
    outer loop
      vertex 0.347296 1.96961 0
      vertex 0.68404 1.87938 3
      vertex 0.347296 1.96961 3
    endloop
  endfacet
  facet normal -0.258818 -0.965926 -0
    outer loop
      vertex 0.68404 1.87938 3
      vertex 0.347296 1.96961 0
      vertex 0.68404 1.87938 0
    endloop
  endfacet
  facet normal 0.996193 -0.0871715 0
    outer loop
      vertex -2 0 3
      vertex -1.96961 0.347296 0
      vertex -1.96961 0.347296 3
    endloop
  endfacet
  facet normal 0.996193 -0.0871715 0
    outer loop
      vertex -1.96961 0.347296 0
      vertex -2 0 3
      vertex -2 0 0
    endloop
  endfacet
  facet normal 0.707107 -0.707107 0
    outer loop
      vertex -1.53209 1.28557 3
      vertex -1.28557 1.53209 0
      vertex -1.28557 1.53209 3
    endloop
  endfacet
  facet normal 0.707107 -0.707107 0
    outer loop
      vertex -1.28557 1.53209 0
      vertex -1.53209 1.28557 3
      vertex -1.53209 1.28557 0
    endloop
  endfacet
  facet normal 0.422607 -0.906313 0
    outer loop
      vertex -1 1.73205 0
      vertex -0.68404 1.87938 3
      vertex -1 1.73205 3
    endloop
  endfacet
  facet normal 0.422607 -0.906313 0
    outer loop
      vertex -0.68404 1.87938 3
      vertex -1 1.73205 0
      vertex -0.68404 1.87938 0
    endloop
  endfacet
  facet normal 0.0871715 -0.996193 0
    outer loop
      vertex -0.347296 1.96961 0
      vertex 0 2 3
      vertex -0.347296 1.96961 3
    endloop
  endfacet
  facet normal 0.0871715 -0.996193 0
    outer loop
      vertex 0 2 3
      vertex -0.347296 1.96961 0
      vertex 0 2 0
    endloop
  endfacet
  facet normal 0.57358 -0.81915 0
    outer loop
      vertex -1.28557 1.53209 0
      vertex -1 1.73205 3
      vertex -1.28557 1.53209 3
    endloop
  endfacet
  facet normal 0.57358 -0.81915 0
    outer loop
      vertex -1 1.73205 3
      vertex -1.28557 1.53209 0
      vertex -1 1.73205 0
    endloop
  endfacet
  facet normal -0.996193 -0.0871715 0
    outer loop
      vertex 2 0 0
      vertex 1.96961 0.347296 3
      vertex 1.96961 0.347296 0
    endloop
  endfacet
  facet normal -0.996193 -0.0871715 0
    outer loop
      vertex 1.96961 0.347296 3
      vertex 2 0 0
      vertex 2 0 3
    endloop
  endfacet
  facet normal -0.0871715 0.996193 0
    outer loop
      vertex 0.347296 -1.96961 0
      vertex 0 -2 3
      vertex 0.347296 -1.96961 3
    endloop
  endfacet
  facet normal -0.0871715 0.996193 0
    outer loop
      vertex 0 -2 3
      vertex 0.347296 -1.96961 0
      vertex 0 -2 0
    endloop
  endfacet
  facet normal -0.258818 0.965926 0
    outer loop
      vertex 0.68404 -1.87938 0
      vertex 0.347296 -1.96961 3
      vertex 0.68404 -1.87938 3
    endloop
  endfacet
  facet normal -0.258818 0.965926 0
    outer loop
      vertex 0.347296 -1.96961 3
      vertex 0.68404 -1.87938 0
      vertex 0.347296 -1.96961 0
    endloop
  endfacet
  facet normal -0.81915 0.57358 0
    outer loop
      vertex 1.53209 -1.28557 0
      vertex 1.73205 -1 3
      vertex 1.73205 -1 0
    endloop
  endfacet
  facet normal -0.81915 0.57358 0
    outer loop
      vertex 1.73205 -1 3
      vertex 1.53209 -1.28557 0
      vertex 1.53209 -1.28557 3
    endloop
  endfacet
  facet normal 0.707107 0.707107 0
    outer loop
      vertex -1.28557 -1.53209 3
      vertex -1.53209 -1.28557 0
      vertex -1.53209 -1.28557 3
    endloop
  endfacet
  facet normal 0.707107 0.707107 0
    outer loop
      vertex -1.53209 -1.28557 0
      vertex -1.28557 -1.53209 3
      vertex -1.28557 -1.53209 0
    endloop
  endfacet
  facet normal 0.996193 0.0871715 0
    outer loop
      vertex -1.96961 -0.347296 3
      vertex -2 0 0
      vertex -2 0 3
    endloop
  endfacet
  facet normal 0.996193 0.0871715 0
    outer loop
      vertex -2 0 0
      vertex -1.96961 -0.347296 3
      vertex -1.96961 -0.347296 0
    endloop
  endfacet
  facet normal -0.965926 -0.258818 0
    outer loop
      vertex 1.96961 0.347296 0
      vertex 1.87938 0.68404 3
      vertex 1.87938 0.68404 0
    endloop
  endfacet
  facet normal -0.965926 -0.258818 0
    outer loop
      vertex 1.87938 0.68404 3
      vertex 1.96961 0.347296 0
      vertex 1.96961 0.347296 3
    endloop
  endfacet
  facet normal 0.81915 -0.57358 0
    outer loop
      vertex -1.73205 1 3
      vertex -1.53209 1.28557 0
      vertex -1.53209 1.28557 3
    endloop
  endfacet
  facet normal 0.81915 -0.57358 0
    outer loop
      vertex -1.53209 1.28557 0
      vertex -1.73205 1 3
      vertex -1.73205 1 0
    endloop
  endfacet
  facet normal -0.996193 0.0871715 0
    outer loop
      vertex 1.96961 -0.347296 0
      vertex 2 0 3
      vertex 2 0 0
    endloop
  endfacet
  facet normal -0.996193 0.0871715 0
    outer loop
      vertex 2 0 3
      vertex 1.96961 -0.347296 0
      vertex 1.96961 -0.347296 3
    endloop
  endfacet
  facet normal -0.965926 0.258818 0
    outer loop
      vertex 1.87938 -0.68404 0
      vertex 1.96961 -0.347296 3
      vertex 1.96961 -0.347296 0
    endloop
  endfacet
  facet normal -0.965926 0.258818 0
    outer loop
      vertex 1.96961 -0.347296 3
      vertex 1.87938 -0.68404 0
      vertex 1.87938 -0.68404 3
    endloop
  endfacet
  facet normal -0.422607 0.906313 0
    outer loop
      vertex 1 -1.73205 0
      vertex 0.68404 -1.87938 3
      vertex 1 -1.73205 3
    endloop
  endfacet
  facet normal -0.422607 0.906313 0
    outer loop
      vertex 0.68404 -1.87938 3
      vertex 1 -1.73205 0
      vertex 0.68404 -1.87938 0
    endloop
  endfacet
  facet normal -0.707107 0.707107 0
    outer loop
      vertex 1.28557 -1.53209 0
      vertex 1.53209 -1.28557 3
      vertex 1.53209 -1.28557 0
    endloop
  endfacet
  facet normal -0.707107 0.707107 0
    outer loop
      vertex 1.53209 -1.28557 3
      vertex 1.28557 -1.53209 0
      vertex 1.28557 -1.53209 3
    endloop
  endfacet
  facet normal -0.906313 0.422607 0
    outer loop
      vertex 1.73205 -1 0
      vertex 1.87938 -0.68404 3
      vertex 1.87938 -0.68404 0
    endloop
  endfacet
  facet normal -0.906313 0.422607 0
    outer loop
      vertex 1.87938 -0.68404 3
      vertex 1.73205 -1 0
      vertex 1.73205 -1 3
    endloop
  endfacet
  facet normal 0.0871715 0.996193 -0
    outer loop
      vertex 0 -2 0
      vertex -0.347296 -1.96961 3
      vertex 0 -2 3
    endloop
  endfacet
  facet normal 0.0871715 0.996193 0
    outer loop
      vertex -0.347296 -1.96961 3
      vertex 0 -2 0
      vertex -0.347296 -1.96961 0
    endloop
  endfacet
  facet normal 0.57358 0.81915 -0
    outer loop
      vertex -1 -1.73205 0
      vertex -1.28557 -1.53209 3
      vertex -1 -1.73205 3
    endloop
  endfacet
  facet normal 0.57358 0.81915 0
    outer loop
      vertex -1.28557 -1.53209 3
      vertex -1 -1.73205 0
      vertex -1.28557 -1.53209 0
    endloop
  endfacet
  facet normal 0.965926 0.258818 0
    outer loop
      vertex -1.87938 -0.68404 3
      vertex -1.96961 -0.347296 0
      vertex -1.96961 -0.347296 3
    endloop
  endfacet
  facet normal 0.965926 0.258818 0
    outer loop
      vertex -1.96961 -0.347296 0
      vertex -1.87938 -0.68404 3
      vertex -1.87938 -0.68404 0
    endloop
  endfacet
  facet normal 0.81915 0.57358 0
    outer loop
      vertex -1.53209 -1.28557 3
      vertex -1.73205 -1 0
      vertex -1.73205 -1 3
    endloop
  endfacet
  facet normal 0.81915 0.57358 0
    outer loop
      vertex -1.73205 -1 0
      vertex -1.53209 -1.28557 3
      vertex -1.53209 -1.28557 0
    endloop
  endfacet
  facet normal -0.57358 0.81915 0
    outer loop
      vertex 1.28557 -1.53209 0
      vertex 1 -1.73205 3
      vertex 1.28557 -1.53209 3
    endloop
  endfacet
  facet normal -0.57358 0.81915 0
    outer loop
      vertex 1 -1.73205 3
      vertex 1.28557 -1.53209 0
      vertex 1 -1.73205 0
    endloop
  endfacet
  facet normal 0.422607 0.906313 -0
    outer loop
      vertex -0.68404 -1.87938 0
      vertex -1 -1.73205 3
      vertex -0.68404 -1.87938 3
    endloop
  endfacet
  facet normal 0.422607 0.906313 0
    outer loop
      vertex -1 -1.73205 3
      vertex -0.68404 -1.87938 0
      vertex -1 -1.73205 0
    endloop
  endfacet
  facet normal -0.0617469 0.705758 0.705758
    outer loop
      vertex 0.694592 -3.93923 5
      vertex 0 -2 3
      vertex 0 -4 5
    endloop
  endfacet
  facet normal -0.705758 -0.0617469 0.705758
    outer loop
      vertex 4 0 5
      vertex 3.93923 0.694592 5
      vertex 2 0 3
    endloop
  endfacet
  facet normal -0.705755 -0.0617568 0.705759
    outer loop
      vertex 2 0 3
      vertex 3.93923 0.694592 5
      vertex 1.96961 0.347296 3
    endloop
  endfacet
  facet normal 0.684313 0.183361 0.705758
    outer loop
      vertex -1.87938 -0.68404 3
      vertex -1.96961 -0.347296 3
      vertex -3.93923 -0.694592 5
    endloop
  endfacet
  facet normal -0.642081 0.299398 0.705757
    outer loop
      vertex 3.4641 -2 5
      vertex 1.87938 -0.68404 3
      vertex 1.73205 -1 3
    endloop
  endfacet
  facet normal -0.0617568 0.705755 0.705759
    outer loop
      vertex 0.694592 -3.93923 5
      vertex 0.347296 -1.96961 3
      vertex 0 -2 3
    endloop
  endfacet
  facet normal -0.0617469 -0.705758 0.705758
    outer loop
      vertex 0.694592 3.93923 5
      vertex 0 4 5
      vertex 0 2 3
    endloop
  endfacet
  facet normal -0.705758 0.0617469 0.705758
    outer loop
      vertex 3.93923 -0.694592 5
      vertex 4 0 5
      vertex 2 0 3
    endloop
  endfacet
  facet normal -0.684313 0.183361 0.705758
    outer loop
      vertex 3.93923 -0.694592 5
      vertex 1.96961 -0.347296 3
      vertex 1.87938 -0.68404 3
    endloop
  endfacet
  facet normal -0.500952 0.500952 0.705758
    outer loop
      vertex 1.53209 -1.28557 3
      vertex 2.57115 -3.06418 5
      vertex 3.06418 -2.57115 5
    endloop
  endfacet
  facet normal -0.500952 0.500952 0.705758
    outer loop
      vertex 2.57115 -3.06418 5
      vertex 1.53209 -1.28557 3
      vertex 1.28557 -1.53209 3
    endloop
  endfacet
  facet normal -0.580333 0.40635 0.705758
    outer loop
      vertex 1.73205 -1 3
      vertex 3.06418 -2.57115 5
      vertex 3.4641 -2 5
    endloop
  endfacet
  facet normal -0.580329 0.406354 0.705758
    outer loop
      vertex 3.06418 -2.57115 5
      vertex 1.73205 -1 3
      vertex 1.53209 -1.28557 3
    endloop
  endfacet
  facet normal -0.183361 0.684313 0.705758
    outer loop
      vertex 0.694592 -3.93923 5
      vertex 1.36808 -3.75877 5
      vertex 0.68404 -1.87938 3
    endloop
  endfacet
  facet normal 0.684313 0.183361 0.705758
    outer loop
      vertex -3.75877 -1.36808 5
      vertex -1.87938 -0.68404 3
      vertex -3.93923 -0.694592 5
    endloop
  endfacet
  facet normal -0.299398 -0.642081 0.705757
    outer loop
      vertex 1 1.73205 3
      vertex 2 3.4641 5
      vertex 0.68404 1.87938 3
    endloop
  endfacet
  facet normal 0.705755 -0.0617568 0.705759
    outer loop
      vertex -2 0 3
      vertex -1.96961 0.347296 3
      vertex -3.93923 0.694592 5
    endloop
  endfacet
  facet normal -0.642076 0.299406 0.705758
    outer loop
      vertex 3.4641 -2 5
      vertex 3.75877 -1.36808 5
      vertex 1.87938 -0.68404 3
    endloop
  endfacet
  facet normal -0.684313 0.183361 0.705758
    outer loop
      vertex 3.75877 -1.36808 5
      vertex 3.93923 -0.694592 5
      vertex 1.87938 -0.68404 3
    endloop
  endfacet
  facet normal -0.705755 0.0617568 0.705759
    outer loop
      vertex 3.93923 -0.694592 5
      vertex 2 0 3
      vertex 1.96961 -0.347296 3
    endloop
  endfacet
  facet normal -0.183361 0.684313 0.705758
    outer loop
      vertex 0.694592 -3.93923 5
      vertex 0.68404 -1.87938 3
      vertex 0.347296 -1.96961 3
    endloop
  endfacet
  facet normal -0.299406 0.642076 0.705758
    outer loop
      vertex 1.36808 -3.75877 5
      vertex 2 -3.4641 5
      vertex 0.68404 -1.87938 3
    endloop
  endfacet
  facet normal 0.642076 0.299406 0.705758
    outer loop
      vertex -3.4641 -2 5
      vertex -1.87938 -0.68404 3
      vertex -3.75877 -1.36808 5
    endloop
  endfacet
  facet normal 0.299406 0.642076 0.705758
    outer loop
      vertex -1.36808 -3.75877 5
      vertex -0.68404 -1.87938 3
      vertex -2 -3.4641 5
    endloop
  endfacet
  facet normal 0.500952 -0.500952 0.705758
    outer loop
      vertex -2.57115 3.06418 5
      vertex -1.53209 1.28557 3
      vertex -1.28557 1.53209 3
    endloop
  endfacet
  facet normal 0.500952 -0.500952 0.705758
    outer loop
      vertex -1.53209 1.28557 3
      vertex -2.57115 3.06418 5
      vertex -3.06418 2.57115 5
    endloop
  endfacet
  facet normal 0.642076 -0.299406 0.705758
    outer loop
      vertex -1.87938 0.68404 3
      vertex -3.4641 2 5
      vertex -3.75877 1.36808 5
    endloop
  endfacet
  facet normal 0.642081 -0.299398 0.705757
    outer loop
      vertex -1.87938 0.68404 3
      vertex -1.73205 1 3
      vertex -3.4641 2 5
    endloop
  endfacet
  facet normal 0.705755 0.0617568 0.705759
    outer loop
      vertex -1.96961 -0.347296 3
      vertex -2 0 3
      vertex -3.93923 -0.694592 5
    endloop
  endfacet
  facet normal -0.406349 0.580332 0.705758
    outer loop
      vertex 1.28557 -1.53209 3
      vertex 2 -3.4641 5
      vertex 2.57115 -3.06418 5
    endloop
  endfacet
  facet normal -0.406355 0.58033 0.705757
    outer loop
      vertex 2 -3.4641 5
      vertex 1.28557 -1.53209 3
      vertex 1 -1.73205 3
    endloop
  endfacet
  facet normal -0.299398 0.642081 0.705757
    outer loop
      vertex 2 -3.4641 5
      vertex 1 -1.73205 3
      vertex 0.68404 -1.87938 3
    endloop
  endfacet
  facet normal 0.642081 0.299398 0.705757
    outer loop
      vertex -1.73205 -1 3
      vertex -1.87938 -0.68404 3
      vertex -3.4641 -2 5
    endloop
  endfacet
  facet normal 0.500952 0.500952 0.705758
    outer loop
      vertex -1.53209 -1.28557 3
      vertex -2.57115 -3.06418 5
      vertex -1.28557 -1.53209 3
    endloop
  endfacet
  facet normal 0.500952 0.500952 0.705758
    outer loop
      vertex -2.57115 -3.06418 5
      vertex -1.53209 -1.28557 3
      vertex -3.06418 -2.57115 5
    endloop
  endfacet
  facet normal 0.0617469 0.705758 0.705758
    outer loop
      vertex 0 -4 5
      vertex 0 -2 3
      vertex -0.694592 -3.93923 5
    endloop
  endfacet
  facet normal 0.183361 0.684313 0.705758
    outer loop
      vertex -0.694592 -3.93923 5
      vertex -0.68404 -1.87938 3
      vertex -1.36808 -3.75877 5
    endloop
  endfacet
  facet normal 0.406355 0.58033 0.705757
    outer loop
      vertex -1.28557 -1.53209 3
      vertex -2 -3.4641 5
      vertex -1 -1.73205 3
    endloop
  endfacet
  facet normal 0.406349 0.580332 0.705758
    outer loop
      vertex -2 -3.4641 5
      vertex -1.28557 -1.53209 3
      vertex -2.57115 -3.06418 5
    endloop
  endfacet
  facet normal 0.299398 0.642081 0.705757
    outer loop
      vertex -0.68404 -1.87938 3
      vertex -1 -1.73205 3
      vertex -2 -3.4641 5
    endloop
  endfacet
  facet normal -0.183361 -0.684313 0.705758
    outer loop
      vertex 1.36808 3.75877 5
      vertex 0.694592 3.93923 5
      vertex 0.68404 1.87938 3
    endloop
  endfacet
  facet normal -0.684313 -0.183361 0.705758
    outer loop
      vertex 3.93923 0.694592 5
      vertex 3.75877 1.36808 5
      vertex 1.87938 0.68404 3
    endloop
  endfacet
  facet normal 0.299398 -0.642081 0.705757
    outer loop
      vertex -1 1.73205 3
      vertex -0.68404 1.87938 3
      vertex -2 3.4641 5
    endloop
  endfacet
  facet normal 0.705758 0.0617469 0.705758
    outer loop
      vertex -3.93923 -0.694592 5
      vertex -2 0 3
      vertex -4 0 5
    endloop
  endfacet
  facet normal 0.705758 -0.0617469 0.705758
    outer loop
      vertex -2 0 3
      vertex -3.93923 0.694592 5
      vertex -4 0 5
    endloop
  endfacet
  facet normal 0.580329 0.406354 0.705758
    outer loop
      vertex -1.73205 -1 3
      vertex -3.06418 -2.57115 5
      vertex -1.53209 -1.28557 3
    endloop
  endfacet
  facet normal 0.580333 0.40635 0.705758
    outer loop
      vertex -3.06418 -2.57115 5
      vertex -1.73205 -1 3
      vertex -3.4641 -2 5
    endloop
  endfacet
  facet normal 0.0617568 0.705755 0.705759
    outer loop
      vertex 0 -2 3
      vertex -0.347296 -1.96961 3
      vertex -0.694592 -3.93923 5
    endloop
  endfacet
  facet normal 0.183361 0.684313 0.705758
    outer loop
      vertex -0.347296 -1.96961 3
      vertex -0.68404 -1.87938 3
      vertex -0.694592 -3.93923 5
    endloop
  endfacet
  facet normal 0.0617568 -0.705755 0.705759
    outer loop
      vertex -0.347296 1.96961 3
      vertex 0 2 3
      vertex -0.694592 3.93923 5
    endloop
  endfacet
  facet normal 0.0617469 -0.705758 0.705758
    outer loop
      vertex 0 2 3
      vertex 0 4 5
      vertex -0.694592 3.93923 5
    endloop
  endfacet
  facet normal -0.684313 -0.183361 0.705758
    outer loop
      vertex 1.96961 0.347296 3
      vertex 3.93923 0.694592 5
      vertex 1.87938 0.68404 3
    endloop
  endfacet
  facet normal -0.580333 -0.40635 0.705758
    outer loop
      vertex 3.06418 2.57115 5
      vertex 1.73205 1 3
      vertex 3.4641 2 5
    endloop
  endfacet
  facet normal -0.580329 -0.406354 0.705758
    outer loop
      vertex 1.73205 1 3
      vertex 3.06418 2.57115 5
      vertex 1.53209 1.28557 3
    endloop
  endfacet
  facet normal -0.642076 -0.299406 0.705758
    outer loop
      vertex 3.75877 1.36808 5
      vertex 3.4641 2 5
      vertex 1.87938 0.68404 3
    endloop
  endfacet
  facet normal 0.183361 -0.684313 0.705758
    outer loop
      vertex -0.68404 1.87938 3
      vertex -0.694592 3.93923 5
      vertex -1.36808 3.75877 5
    endloop
  endfacet
  facet normal 0.299406 -0.642076 0.705758
    outer loop
      vertex -0.68404 1.87938 3
      vertex -1.36808 3.75877 5
      vertex -2 3.4641 5
    endloop
  endfacet
  facet normal 0.406355 -0.58033 0.705757
    outer loop
      vertex -2 3.4641 5
      vertex -1.28557 1.53209 3
      vertex -1 1.73205 3
    endloop
  endfacet
  facet normal 0.406349 -0.580332 0.705758
    outer loop
      vertex -1.28557 1.53209 3
      vertex -2 3.4641 5
      vertex -2.57115 3.06418 5
    endloop
  endfacet
  facet normal 0.684313 -0.183361 0.705758
    outer loop
      vertex -1.96961 0.347296 3
      vertex -1.87938 0.68404 3
      vertex -3.93923 0.694592 5
    endloop
  endfacet
  facet normal 0.684313 -0.183361 0.705758
    outer loop
      vertex -1.87938 0.68404 3
      vertex -3.75877 1.36808 5
      vertex -3.93923 0.694592 5
    endloop
  endfacet
  facet normal -0.0617568 -0.705755 0.705759
    outer loop
      vertex 0.347296 1.96961 3
      vertex 0.694592 3.93923 5
      vertex 0 2 3
    endloop
  endfacet
  facet normal -0.183361 -0.684313 0.705758
    outer loop
      vertex 0.68404 1.87938 3
      vertex 0.694592 3.93923 5
      vertex 0.347296 1.96961 3
    endloop
  endfacet
  facet normal -0.299406 -0.642076 0.705758
    outer loop
      vertex 2 3.4641 5
      vertex 1.36808 3.75877 5
      vertex 0.68404 1.87938 3
    endloop
  endfacet
  facet normal -0.500952 -0.500952 0.705758
    outer loop
      vertex 2.57115 3.06418 5
      vertex 1.53209 1.28557 3
      vertex 3.06418 2.57115 5
    endloop
  endfacet
  facet normal -0.500952 -0.500952 0.705758
    outer loop
      vertex 1.53209 1.28557 3
      vertex 2.57115 3.06418 5
      vertex 1.28557 1.53209 3
    endloop
  endfacet
  facet normal -0.642081 -0.299398 0.705757
    outer loop
      vertex 1.87938 0.68404 3
      vertex 3.4641 2 5
      vertex 1.73205 1 3
    endloop
  endfacet
  facet normal 0.183361 -0.684313 0.705758
    outer loop
      vertex -0.68404 1.87938 3
      vertex -0.347296 1.96961 3
      vertex -0.694592 3.93923 5
    endloop
  endfacet
  facet normal 0.580329 -0.406354 0.705758
    outer loop
      vertex -3.06418 2.57115 5
      vertex -1.73205 1 3
      vertex -1.53209 1.28557 3
    endloop
  endfacet
  facet normal 0.580333 -0.40635 0.705758
    outer loop
      vertex -1.73205 1 3
      vertex -3.06418 2.57115 5
      vertex -3.4641 2 5
    endloop
  endfacet
  facet normal -0.406349 -0.580332 0.705758
    outer loop
      vertex 2 3.4641 5
      vertex 1.28557 1.53209 3
      vertex 2.57115 3.06418 5
    endloop
  endfacet
  facet normal -0.406355 -0.58033 0.705757
    outer loop
      vertex 1.28557 1.53209 3
      vertex 2 3.4641 5
      vertex 1 1.73205 3
    endloop
  endfacet
endsolid OpenSCAD_Model
