solid OpenSCAD_Model
  facet normal 1 -0 0
    outer loop
      vertex -21 4.3 22
      vertex -21 6 17
      vertex -21 6 22
    endloop
  endfacet
  facet normal 1 0 0
    outer loop
      vertex -21 6 17
      vertex -21 4.3 22
      vertex -21 4.3 17
    endloop
  endfacet
  facet normal 1 -0 0
    outer loop
      vertex -21 4.3 7
      vertex -21 6 6
      vertex -21 6 7
    endloop
  endfacet
  facet normal 1 0 0
    outer loop
      vertex -21 6 6
      vertex -21 4.3 7
      vertex -21 4.3 6
    endloop
  endfacet
  facet normal 1 -0 0
    outer loop
      vertex -21 0 22
      vertex -21 1.7 14.8601
      vertex -21 1.7 22
    endloop
  endfacet
  facet normal 1 0 0
    outer loop
      vertex -21 1.7 14.8601
      vertex -21 0 22
      vertex -21 0 14.8601
    endloop
  endfacet
  facet normal 0 1 0
    outer loop
      vertex 21.5 1.7 6
      vertex 21.5 1.7 5.5
      vertex 21 1.7 6
    endloop
  endfacet
  facet normal 0 1 -0
    outer loop
      vertex 21 1.7 6
      vertex 20.9874 1.7 9.09283
      vertex 21 1.7 9.1399
    endloop
  endfacet
  facet normal 0 1 0
    outer loop
      vertex 21 1.7 6
      vertex 20.3612 1.7 7.75
      vertex 20.9874 1.7 9.09283
    endloop
  endfacet
  facet normal 0 1 0
    outer loop
      vertex 21 1.7 6
      vertex 19.5114 1.7 6.5363
      vertex 20.3612 1.7 7.75
    endloop
  endfacet
  facet normal 0 1 0
    outer loop
      vertex 18.4751 1.7 5.5
      vertex 21 1.7 6
      vertex 21.5 1.7 5.5
    endloop
  endfacet
  facet normal 0 1 0
    outer loop
      vertex 21 1.7 6
      vertex 18.4751 1.7 5.5
      vertex 19.5114 1.7 6.5363
    endloop
  endfacet
  facet normal 0 1 0
    outer loop
      vertex 23.3 1.7 22
      vertex 21 1.7 14.8601
      vertex 21 1.7 22
    endloop
  endfacet
  facet normal 0 1 0
    outer loop
      vertex 23.3 1.7 22
      vertex 21.3709 1.7 13.476
      vertex 21 1.7 14.8601
    endloop
  endfacet
  facet normal 0 1 0
    outer loop
      vertex 23.3 1.7 22
      vertex 21.5 1.7 12
      vertex 21.3709 1.7 13.476
    endloop
  endfacet
  facet normal 0 1 -0
    outer loop
      vertex 23.3 1.7 1.7
      vertex 21.5 1.7 12
      vertex 23.3 1.7 22
    endloop
  endfacet
  facet normal 0 1 0
    outer loop
      vertex 21.3709 1.7 10.524
      vertex 21.5 1.7 6
      vertex 21 1.7 9.1399
    endloop
  endfacet
  facet normal 0 1 0
    outer loop
      vertex 21.5 1.7 12
      vertex 23.3 1.7 1.7
      vertex 21.3709 1.7 10.524
    endloop
  endfacet
  facet normal 0 1 0
    outer loop
      vertex 21.3709 1.7 10.524
      vertex 23.3 1.7 1.7
      vertex 21.5 1.7 6
    endloop
  endfacet
  facet normal 0 1 0
    outer loop
      vertex 21.5 1.7 5.5
      vertex 18.4637 1.7 5.48862
      vertex 18.4751 1.7 5.5
    endloop
  endfacet
  facet normal 0 1 0
    outer loop
      vertex 23.3 1.7 1.7
      vertex 18.4637 1.7 5.48862
      vertex 21.5 1.7 5.5
    endloop
  endfacet
  facet normal 0 1 0
    outer loop
      vertex 18.4637 1.7 5.48862
      vertex 23.3 1.7 1.7
      vertex 17.25 1.7 4.63878
    endloop
  endfacet
  facet normal 0 1 0
    outer loop
      vertex 17.25 1.7 4.63878
      vertex 23.3 1.7 1.7
      vertex 15.9072 1.7 4.01261
    endloop
  endfacet
  facet normal 0 1 0
    outer loop
      vertex 10.0928 1.7 4.01261
      vertex 5.79813 1.7 3.07164
      vertex 6.09808 1.7 3.5
    endloop
  endfacet
  facet normal 0 1 0
    outer loop
      vertex 11.524 1.7 3.62913
      vertex 5.42836 1.7 2.70187
      vertex 5.79813 1.7 3.07164
    endloop
  endfacet
  facet normal 0 1 0
    outer loop
      vertex 23.3 1.7 1.7
      vertex 13 1.7 3.5
      vertex 14.476 1.7 3.62913
    endloop
  endfacet
  facet normal 0 1 0
    outer loop
      vertex 11.524 1.7 3.62913
      vertex 5 1.7 2.40192
      vertex 5.42836 1.7 2.70187
    endloop
  endfacet
  facet normal 0 1 0
    outer loop
      vertex 13 1.7 3.5
      vertex 4.52606 1.7 2.18092
      vertex 5 1.7 2.40192
    endloop
  endfacet
  facet normal 0 1 0
    outer loop
      vertex 13 1.7 3.5
      vertex 23.3 1.7 1.7
      vertex 4.52606 1.7 2.18092
    endloop
  endfacet
  facet normal 0 1 0
    outer loop
      vertex 3.5 1.7 2
      vertex 23.3 1.7 1.7
      vertex -3.5 1.7 2
    endloop
  endfacet
  facet normal 0 1 0
    outer loop
      vertex 4.02094 1.7 2.04558
      vertex 23.3 1.7 1.7
      vertex 3.5 1.7 2
    endloop
  endfacet
  facet normal 0 1 0
    outer loop
      vertex 4.52606 1.7 2.18092
      vertex 23.3 1.7 1.7
      vertex 4.02094 1.7 2.04558
    endloop
  endfacet
  facet normal 0 1 0
    outer loop
      vertex 15.9072 1.7 4.01261
      vertex 23.3 1.7 1.7
      vertex 14.476 1.7 3.62913
    endloop
  endfacet
  facet normal 0 1 0
    outer loop
      vertex 21.5 1.7 6
      vertex 23.3 1.7 1.7
      vertex 21.5 1.7 5.5
    endloop
  endfacet
  facet normal 0 1 0
    outer loop
      vertex 21 1.7 9.1399
      vertex 21.5 1.7 6
      vertex 21 1.7 6
    endloop
  endfacet
  facet normal 0 1 0
    outer loop
      vertex 7.02493 1.7 6
      vertex 6.45442 1.7 5.52094
      vertex 6.32606 1.7 6
    endloop
  endfacet
  facet normal 0 1 0
    outer loop
      vertex 7.5363 1.7 5.48862
      vertex 6.45442 1.7 5.52094
      vertex 7.02493 1.7 6
    endloop
  endfacet
  facet normal 0 1 0
    outer loop
      vertex 7.5363 1.7 5.48862
      vertex 6.5 1.7 5
      vertex 6.45442 1.7 5.52094
    endloop
  endfacet
  facet normal 0 1 0
    outer loop
      vertex 6.45442 1.7 4.47906
      vertex 7.5363 1.7 5.48862
      vertex 8.75 1.7 4.63878
    endloop
  endfacet
  facet normal 0 1 0
    outer loop
      vertex 7.5363 1.7 5.48862
      vertex 6.45442 1.7 4.47906
      vertex 6.5 1.7 5
    endloop
  endfacet
  facet normal 0 1 0
    outer loop
      vertex 6.09808 1.7 3.5
      vertex 8.75 1.7 4.63878
      vertex 10.0928 1.7 4.01261
    endloop
  endfacet
  facet normal 0 1 0
    outer loop
      vertex 8.75 1.7 4.63878
      vertex 6.31908 1.7 3.97394
      vertex 6.45442 1.7 4.47906
    endloop
  endfacet
  facet normal 0 1 0
    outer loop
      vertex 5.79813 1.7 3.07164
      vertex 10.0928 1.7 4.01261
      vertex 11.524 1.7 3.62913
    endloop
  endfacet
  facet normal 0 1 0
    outer loop
      vertex 5 1.7 2.40192
      vertex 11.524 1.7 3.62913
      vertex 13 1.7 3.5
    endloop
  endfacet
  facet normal 0 1 0
    outer loop
      vertex 8.75 1.7 4.63878
      vertex 6.09808 1.7 3.5
      vertex 6.31908 1.7 3.97394
    endloop
  endfacet
  facet normal 0 1 -0
    outer loop
      vertex -6.45442 1.7 5.52094
      vertex -7.02493 1.7 6
      vertex -6.32606 1.7 6
    endloop
  endfacet
  facet normal 0 1 0
    outer loop
      vertex -6.45442 1.7 5.52094
      vertex -7.53631 1.7 5.48862
      vertex -7.02493 1.7 6
    endloop
  endfacet
  facet normal 0 1 -0
    outer loop
      vertex -6.5 1.7 5
      vertex -7.53631 1.7 5.48862
      vertex -6.45442 1.7 5.52094
    endloop
  endfacet
  facet normal 0 1 0
    outer loop
      vertex -6.45442 1.7 4.47906
      vertex -7.53631 1.7 5.48862
      vertex -6.5 1.7 5
    endloop
  endfacet
  facet normal 0 1 0
    outer loop
      vertex -7.53631 1.7 5.48862
      vertex -6.45442 1.7 4.47906
      vertex -8.75 1.7 4.63878
    endloop
  endfacet
  facet normal 0 1 0
    outer loop
      vertex -6.31908 1.7 3.97394
      vertex -8.75 1.7 4.63878
      vertex -6.45442 1.7 4.47906
    endloop
  endfacet
  facet normal 0 1 0
    outer loop
      vertex -6.09808 1.7 3.5
      vertex -8.75 1.7 4.63878
      vertex -6.31908 1.7 3.97394
    endloop
  endfacet
  facet normal 0 1 0
    outer loop
      vertex -8.75 1.7 4.63878
      vertex -6.09808 1.7 3.5
      vertex -10.0928 1.7 4.01261
    endloop
  endfacet
  facet normal 0 1 0
    outer loop
      vertex -5.79813 1.7 3.07164
      vertex -10.0928 1.7 4.01261
      vertex -6.09808 1.7 3.5
    endloop
  endfacet
  facet normal 0 1 0
    outer loop
      vertex -5.42836 1.7 2.70187
      vertex -10.0928 1.7 4.01261
      vertex -5.79813 1.7 3.07164
    endloop
  endfacet
  facet normal 0 1 0
    outer loop
      vertex -10.0928 1.7 4.01261
      vertex -5.42836 1.7 2.70187
      vertex -11.524 1.7 3.62913
    endloop
  endfacet
  facet normal 0 1 0
    outer loop
      vertex -18.4751 1.7 5.5
      vertex -18.4637 1.7 5.48862
      vertex -21 1.7 5.5
    endloop
  endfacet
  facet normal 0 1 -0
    outer loop
      vertex -21 1.7 14.8601
      vertex -23.3 1.7 22
      vertex -21 1.7 22
    endloop
  endfacet
  facet normal 0 1 -0
    outer loop
      vertex -21.3709 1.7 13.476
      vertex -23.3 1.7 22
      vertex -21 1.7 14.8601
    endloop
  endfacet
  facet normal 0 1 -0
    outer loop
      vertex -21.5 1.7 12
      vertex -23.3 1.7 22
      vertex -21.3709 1.7 13.476
    endloop
  endfacet
  facet normal 0 1 0
    outer loop
      vertex -23.3 1.7 1.7
      vertex -21.5 1.7 12
      vertex -21.3709 1.7 10.524
    endloop
  endfacet
  facet normal 0 1 0
    outer loop
      vertex -21 1.7 6
      vertex -20.7 1.7 8.47653
      vertex -20.7 1.7 6
    endloop
  endfacet
  facet normal 0 1 0
    outer loop
      vertex -20.7 1.7 8.47653
      vertex -21 1.7 6
      vertex -20.9874 1.7 9.09283
    endloop
  endfacet
  facet normal 0 1 0
    outer loop
      vertex -23.3 1.7 1.7
      vertex -20.9874 1.7 9.09283
      vertex -21 1.7 6
    endloop
  endfacet
  facet normal 0 1 0
    outer loop
      vertex -20.9874 1.7 9.09283
      vertex -23.3 1.7 1.7
      vertex -21.3709 1.7 10.524
    endloop
  endfacet
  facet normal 0 1 0
    outer loop
      vertex -23.3 1.7 1.7
      vertex -21 1.7 6
      vertex -21 1.7 5.5
    endloop
  endfacet
  facet normal 0 1 0
    outer loop
      vertex -17.25 1.7 4.63878
      vertex -21 1.7 5.5
      vertex -18.4637 1.7 5.48862
    endloop
  endfacet
  facet normal 0 1 0
    outer loop
      vertex -23.3 1.7 1.7
      vertex -17.25 1.7 4.63878
      vertex -15.9072 1.7 4.01261
    endloop
  endfacet
  facet normal 0 1 0
    outer loop
      vertex -5 1.7 2.40192
      vertex -11.524 1.7 3.62913
      vertex -5.42836 1.7 2.70187
    endloop
  endfacet
  facet normal 0 1 0
    outer loop
      vertex -11.524 1.7 3.62913
      vertex -5 1.7 2.40192
      vertex -13 1.7 3.5
    endloop
  endfacet
  facet normal 0 1 0
    outer loop
      vertex -4.52606 1.7 2.18092
      vertex -13 1.7 3.5
      vertex -5 1.7 2.40192
    endloop
  endfacet
  facet normal 0 1 0
    outer loop
      vertex -23.3 1.7 1.7
      vertex -13 1.7 3.5
      vertex -4.52606 1.7 2.18092
    endloop
  endfacet
  facet normal 0 1 0
    outer loop
      vertex -23.3 1.7 1.7
      vertex -4.52606 1.7 2.18092
      vertex -4.02094 1.7 2.04558
    endloop
  endfacet
  facet normal 0 1 0
    outer loop
      vertex -21.5 1.7 12
      vertex -23.3 1.7 1.7
      vertex -23.3 1.7 22
    endloop
  endfacet
  facet normal 0 1 0
    outer loop
      vertex -17.25 1.7 4.63878
      vertex -23.3 1.7 1.7
      vertex -21 1.7 5.5
    endloop
  endfacet
  facet normal 0 1 0
    outer loop
      vertex -14.476 1.7 3.62913
      vertex -23.3 1.7 1.7
      vertex -15.9072 1.7 4.01261
    endloop
  endfacet
  facet normal 0 1 0
    outer loop
      vertex -13 1.7 3.5
      vertex -23.3 1.7 1.7
      vertex -14.476 1.7 3.62913
    endloop
  endfacet
  facet normal 0 1 0
    outer loop
      vertex -3.5 1.7 2
      vertex -23.3 1.7 1.7
      vertex -4.02094 1.7 2.04558
    endloop
  endfacet
  facet normal 0 1 0
    outer loop
      vertex -23.3 1.7 1.7
      vertex -3.5 1.7 2
      vertex 23.3 1.7 1.7
    endloop
  endfacet
  facet normal 0 1 0
    outer loop
      vertex -20.3612 1.7 7.75
      vertex -20.7 1.7 6
      vertex -20.7 1.7 8.47653
    endloop
  endfacet
  facet normal 0 1 0
    outer loop
      vertex -19.5114 1.7 6.5363
      vertex -20.7 1.7 6
      vertex -20.3612 1.7 7.75
    endloop
  endfacet
  facet normal 0 1 0
    outer loop
      vertex -18.4751 1.7 5.5
      vertex -20.7 1.7 6
      vertex -19.5114 1.7 6.5363
    endloop
  endfacet
  facet normal 0 1 0
    outer loop
      vertex -21 1.7 5.5
      vertex -20.7 1.7 6
      vertex -18.4751 1.7 5.5
    endloop
  endfacet
  facet normal 0 1 0
    outer loop
      vertex -20.7 1.7 6
      vertex -21 1.7 5.5
      vertex -21 1.7 6
    endloop
  endfacet
  facet normal 0 -1 0
    outer loop
      vertex -25 0 22
      vertex -21 0 14.8601
      vertex -21 0 22
    endloop
  endfacet
  facet normal 0 -1 0
    outer loop
      vertex -25 0 22
      vertex -21.3709 0 13.476
      vertex -21 0 14.8601
    endloop
  endfacet
  facet normal 0 -1 0
    outer loop
      vertex -25 0 22
      vertex -21.5 0 12
      vertex -21.3709 0 13.476
    endloop
  endfacet
  facet normal 0 -1 0
    outer loop
      vertex -25 0 0
      vertex -21.5 0 12
      vertex -25 0 22
    endloop
  endfacet
  facet normal 0 -1 -0
    outer loop
      vertex -21.5 0 12
      vertex -25 0 0
      vertex -21.3709 0 10.524
    endloop
  endfacet
  facet normal 0 -1 0
    outer loop
      vertex -10.0928 0 4.01261
      vertex -5.79813 0 3.07164
      vertex -6.09808 0 3.5
    endloop
  endfacet
  facet normal 0 -1 0
    outer loop
      vertex -11.524 0 3.62913
      vertex -5.42836 0 2.70187
      vertex -5.79813 0 3.07164
    endloop
  endfacet
  facet normal 0 -1 0
    outer loop
      vertex -25 0 0
      vertex -13 0 3.5
      vertex -14.476 0 3.62913
    endloop
  endfacet
  facet normal 0 -1 0
    outer loop
      vertex -11.524 0 3.62913
      vertex -5 0 2.40192
      vertex -5.42836 0 2.70187
    endloop
  endfacet
  facet normal 0 -1 0
    outer loop
      vertex -13 0 3.5
      vertex -4.52606 0 2.18092
      vertex -5 0 2.40192
    endloop
  endfacet
  facet normal 0 -1 -0
    outer loop
      vertex -13 0 3.5
      vertex -25 0 0
      vertex -4.52606 0 2.18092
    endloop
  endfacet
  facet normal 0 -1 -0
    outer loop
      vertex -3.5 0 2
      vertex -25 0 0
      vertex 3.5 0 2
    endloop
  endfacet
  facet normal 0 -1 -0
    outer loop
      vertex -4.02094 0 2.04558
      vertex -25 0 0
      vertex -3.5 0 2
    endloop
  endfacet
  facet normal 0 -1 -0
    outer loop
      vertex -4.52606 0 2.18092
      vertex -25 0 0
      vertex -4.02094 0 2.04558
    endloop
  endfacet
  facet normal 0 -1 -0
    outer loop
      vertex -15.9072 0 4.01261
      vertex -25 0 0
      vertex -14.476 0 3.62913
    endloop
  endfacet
  facet normal 0 -1 -0
    outer loop
      vertex -17.25 0 4.63878
      vertex -25 0 0
      vertex -15.9072 0 4.01261
    endloop
  endfacet
  facet normal 0 -1 -0
    outer loop
      vertex -18.4637 0 5.48862
      vertex -25 0 0
      vertex -17.25 0 4.63878
    endloop
  endfacet
  facet normal 0 -1 -0
    outer loop
      vertex -19.5114 0 6.5363
      vertex -25 0 0
      vertex -18.4637 0 5.48862
    endloop
  endfacet
  facet normal 0 -1 -0
    outer loop
      vertex -20.3612 0 7.75
      vertex -25 0 0
      vertex -19.5114 0 6.5363
    endloop
  endfacet
  facet normal 0 -1 -0
    outer loop
      vertex -20.9874 0 9.09283
      vertex -25 0 0
      vertex -20.3612 0 7.75
    endloop
  endfacet
  facet normal 0 -1 -0
    outer loop
      vertex -21.3709 0 10.524
      vertex -25 0 0
      vertex -20.9874 0 9.09283
    endloop
  endfacet
  facet normal 0 -1 0
    outer loop
      vertex -7.02493 0 6
      vertex -6.45442 0 5.52094
      vertex -6.32606 0 6
    endloop
  endfacet
  facet normal 0 -1 0
    outer loop
      vertex -7.53631 0 5.48862
      vertex -6.45442 0 5.52094
      vertex -7.02493 0 6
    endloop
  endfacet
  facet normal 0 -1 0
    outer loop
      vertex -7.53631 0 5.48862
      vertex -6.5 0 5
      vertex -6.45442 0 5.52094
    endloop
  endfacet
  facet normal 0 -1 0
    outer loop
      vertex -6.45442 0 4.47906
      vertex -7.53631 0 5.48862
      vertex -8.75 0 4.63878
    endloop
  endfacet
  facet normal 0 -1 0
    outer loop
      vertex -7.53631 0 5.48862
      vertex -6.45442 0 4.47906
      vertex -6.5 0 5
    endloop
  endfacet
  facet normal 0 -1 0
    outer loop
      vertex -6.09808 0 3.5
      vertex -8.75 0 4.63878
      vertex -10.0928 0 4.01261
    endloop
  endfacet
  facet normal 0 -1 0
    outer loop
      vertex -8.75 0 4.63878
      vertex -6.31908 0 3.97394
      vertex -6.45442 0 4.47906
    endloop
  endfacet
  facet normal 0 -1 0
    outer loop
      vertex -5.79813 0 3.07164
      vertex -10.0928 0 4.01261
      vertex -11.524 0 3.62913
    endloop
  endfacet
  facet normal 0 -1 0
    outer loop
      vertex -5 0 2.40192
      vertex -11.524 0 3.62913
      vertex -13 0 3.5
    endloop
  endfacet
  facet normal 0 -1 0
    outer loop
      vertex -8.75 0 4.63878
      vertex -6.09808 0 3.5
      vertex -6.31908 0 3.97394
    endloop
  endfacet
  facet normal 0 -1 0
    outer loop
      vertex 6.45442 0 5.52094
      vertex 7.02493 0 6
      vertex 6.32606 0 6
    endloop
  endfacet
  facet normal 0 -1 0
    outer loop
      vertex 6.45442 0 5.52094
      vertex 7.5363 0 5.48862
      vertex 7.02493 0 6
    endloop
  endfacet
  facet normal 0 -1 0
    outer loop
      vertex 6.5 0 5
      vertex 7.5363 0 5.48862
      vertex 6.45442 0 5.52094
    endloop
  endfacet
  facet normal 0 -1 0
    outer loop
      vertex 6.45442 0 4.47906
      vertex 7.5363 0 5.48862
      vertex 6.5 0 5
    endloop
  endfacet
  facet normal 0 -1 -0
    outer loop
      vertex 7.5363 0 5.48862
      vertex 6.45442 0 4.47906
      vertex 8.75 0 4.63878
    endloop
  endfacet
  facet normal 0 -1 0
    outer loop
      vertex 6.31908 0 3.97394
      vertex 8.75 0 4.63878
      vertex 6.45442 0 4.47906
    endloop
  endfacet
  facet normal 0 -1 0
    outer loop
      vertex 6.09808 0 3.5
      vertex 8.75 0 4.63878
      vertex 6.31908 0 3.97394
    endloop
  endfacet
  facet normal 0 -1 -0
    outer loop
      vertex 8.75 0 4.63878
      vertex 6.09808 0 3.5
      vertex 10.0928 0 4.01261
    endloop
  endfacet
  facet normal 0 -1 0
    outer loop
      vertex 5.79813 0 3.07164
      vertex 10.0928 0 4.01261
      vertex 6.09808 0 3.5
    endloop
  endfacet
  facet normal 0 -1 0
    outer loop
      vertex 5.42836 0 2.70187
      vertex 10.0928 0 4.01261
      vertex 5.79813 0 3.07164
    endloop
  endfacet
  facet normal 0 -1 -0
    outer loop
      vertex 10.0928 0 4.01261
      vertex 5.42836 0 2.70187
      vertex 11.524 0 3.62913
    endloop
  endfacet
  facet normal 0 -1 0
    outer loop
      vertex 21 0 14.8601
      vertex 25 0 22
      vertex 21 0 22
    endloop
  endfacet
  facet normal 0 -1 0
    outer loop
      vertex 21.3709 0 13.476
      vertex 25 0 22
      vertex 21 0 14.8601
    endloop
  endfacet
  facet normal 0 -1 0
    outer loop
      vertex 21.5 0 12
      vertex 25 0 22
      vertex 21.3709 0 13.476
    endloop
  endfacet
  facet normal 0 -1 0
    outer loop
      vertex 25 0 0
      vertex 21.5 0 12
      vertex 21.3709 0 10.524
    endloop
  endfacet
  facet normal 0 -1 0
    outer loop
      vertex 25 0 0
      vertex 21.3709 0 10.524
      vertex 20.9874 0 9.09283
    endloop
  endfacet
  facet normal 0 -1 0
    outer loop
      vertex 5 0 2.40192
      vertex 11.524 0 3.62913
      vertex 5.42836 0 2.70187
    endloop
  endfacet
  facet normal 0 -1 -0
    outer loop
      vertex 11.524 0 3.62913
      vertex 5 0 2.40192
      vertex 13 0 3.5
    endloop
  endfacet
  facet normal 0 -1 0
    outer loop
      vertex 4.52606 0 2.18092
      vertex 13 0 3.5
      vertex 5 0 2.40192
    endloop
  endfacet
  facet normal 0 -1 0
    outer loop
      vertex 25 0 0
      vertex 13 0 3.5
      vertex 4.52606 0 2.18092
    endloop
  endfacet
  facet normal 0 -1 0
    outer loop
      vertex 25 0 0
      vertex 4.52606 0 2.18092
      vertex 4.02094 0 2.04558
    endloop
  endfacet
  facet normal 0 -1 0
    outer loop
      vertex 21.5 0 12
      vertex 25 0 0
      vertex 25 0 22
    endloop
  endfacet
  facet normal 0 -1 0
    outer loop
      vertex 20.3612 0 7.75
      vertex 25 0 0
      vertex 20.9874 0 9.09283
    endloop
  endfacet
  facet normal 0 -1 0
    outer loop
      vertex 19.5114 0 6.5363
      vertex 25 0 0
      vertex 20.3612 0 7.75
    endloop
  endfacet
  facet normal 0 -1 0
    outer loop
      vertex 18.4637 0 5.48862
      vertex 25 0 0
      vertex 19.5114 0 6.5363
    endloop
  endfacet
  facet normal 0 -1 0
    outer loop
      vertex 17.25 0 4.63878
      vertex 25 0 0
      vertex 18.4637 0 5.48862
    endloop
  endfacet
  facet normal 0 -1 0
    outer loop
      vertex 15.9072 0 4.01261
      vertex 25 0 0
      vertex 17.25 0 4.63878
    endloop
  endfacet
  facet normal 0 -1 0
    outer loop
      vertex 14.476 0 3.62913
      vertex 25 0 0
      vertex 15.9072 0 4.01261
    endloop
  endfacet
  facet normal 0 -1 0
    outer loop
      vertex 13 0 3.5
      vertex 25 0 0
      vertex 14.476 0 3.62913
    endloop
  endfacet
  facet normal 0 -1 0
    outer loop
      vertex 3.5 0 2
      vertex 25 0 0
      vertex 4.02094 0 2.04558
    endloop
  endfacet
  facet normal 0 -1 0
    outer loop
      vertex 25 0 0
      vertex 3.5 0 2
      vertex -25 0 0
    endloop
  endfacet
  facet normal 0.706486 0 0.707727
    outer loop
      vertex -18.4751 1.7 5.5
      vertex -18.4637 0 5.48862
      vertex -18.4637 1.7 5.48862
    endloop
  endfacet
  facet normal 0.707107 8.3189e-06 0.707107
    outer loop
      vertex -19.5114 1.7 6.5363
      vertex -18.4637 0 5.48862
      vertex -18.4751 1.7 5.5
    endloop
  endfacet
  facet normal 0.7071 0 0.707114
    outer loop
      vertex -18.4637 0 5.48862
      vertex -19.5114 1.7 6.5363
      vertex -19.5114 0 6.5363
    endloop
  endfacet
  facet normal 0.9063 -0 0.422636
    outer loop
      vertex -20.9874 0 9.09283
      vertex -20.7 1.7 8.47653
      vertex -20.9874 1.7 9.09283
    endloop
  endfacet
  facet normal 0.906301 -9.05979e-07 0.422634
    outer loop
      vertex -20.3612 0 7.75
      vertex -20.7 1.7 8.47653
      vertex -20.9874 0 9.09283
    endloop
  endfacet
  facet normal 0.906301 0 0.422632
    outer loop
      vertex -20.7 1.7 8.47653
      vertex -20.3612 0 7.75
      vertex -20.3612 1.7 7.75
    endloop
  endfacet
  facet normal 0.819165 -0 0.573557
    outer loop
      vertex -20.3612 0 7.75
      vertex -19.5114 1.7 6.5363
      vertex -20.3612 1.7 7.75
    endloop
  endfacet
  facet normal 0.819165 0 0.573557
    outer loop
      vertex -19.5114 1.7 6.5363
      vertex -20.3612 0 7.75
      vertex -19.5114 0 6.5363
    endloop
  endfacet
  facet normal 0.965923 -0 0.258831
    outer loop
      vertex -21.3709 0 10.524
      vertex -20.9874 1.7 9.09283
      vertex -21.3709 1.7 10.524
    endloop
  endfacet
  facet normal 0.965923 0 0.258831
    outer loop
      vertex -20.9874 1.7 9.09283
      vertex -21.3709 0 10.524
      vertex -20.9874 0 9.09283
    endloop
  endfacet
  facet normal 0 0 1
    outer loop
      vertex -21 6 22
      vertex -23.3 4.3 22
      vertex -21 4.3 22
    endloop
  endfacet
  facet normal 0 0 1
    outer loop
      vertex -23.3 4.3 22
      vertex -25 6 22
      vertex -23.3 1.7 22
    endloop
  endfacet
  facet normal -0 0 1
    outer loop
      vertex -25 6 22
      vertex -23.3 4.3 22
      vertex -21 6 22
    endloop
  endfacet
  facet normal -0 0 1
    outer loop
      vertex -23.3 1.7 22
      vertex -21 0 22
      vertex -21 1.7 22
    endloop
  endfacet
  facet normal 0 0 1
    outer loop
      vertex -23.3 1.7 22
      vertex -25 0 22
      vertex -21 0 22
    endloop
  endfacet
  facet normal 0 0 1
    outer loop
      vertex -25 0 22
      vertex -23.3 1.7 22
      vertex -25 6 22
    endloop
  endfacet
  facet normal -0 0 1
    outer loop
      vertex 6.32606 6 6
      vertex 21 4.3 6
      vertex 21 6 6
    endloop
  endfacet
  facet normal 0 0 1
    outer loop
      vertex 21 4.3 6
      vertex 6.32606 6 6
      vertex 6.32606 4.3 6
    endloop
  endfacet
  facet normal -0 0 1
    outer loop
      vertex -21 6 6
      vertex -6.32606 4.3 6
      vertex -6.32606 6 6
    endloop
  endfacet
  facet normal 0 0 1
    outer loop
      vertex -6.32606 4.3 6
      vertex -21 6 6
      vertex -21 4.3 6
    endloop
  endfacet
  facet normal -0 0 1
    outer loop
      vertex -7.02493 1.7 6
      vertex -6.32606 0 6
      vertex -6.32606 1.7 6
    endloop
  endfacet
  facet normal 0 0 1
    outer loop
      vertex -6.32606 0 6
      vertex -7.02493 1.7 6
      vertex -7.02493 0 6
    endloop
  endfacet
  facet normal -0 0 1
    outer loop
      vertex 6.32606 1.7 6
      vertex 7.02493 0 6
      vertex 7.02493 1.7 6
    endloop
  endfacet
  facet normal 0 0 1
    outer loop
      vertex 7.02493 0 6
      vertex 6.32606 1.7 6
      vertex 6.32606 0 6
    endloop
  endfacet
  facet normal -1 0 0
    outer loop
      vertex -25 0 0
      vertex -25 6 22
      vertex -25 6 0
    endloop
  endfacet
  facet normal -1 -0 0
    outer loop
      vertex -25 6 22
      vertex -25 0 0
      vertex -25 0 22
    endloop
  endfacet
  facet normal 0 1 0
    outer loop
      vertex 25 6 22
      vertex 21 6 6
      vertex 21 6 22
    endloop
  endfacet
  facet normal 0 1 0
    outer loop
      vertex 21 6 6
      vertex 6.45442 6 5.52094
      vertex 6.32606 6 6
    endloop
  endfacet
  facet normal 0 1 0
    outer loop
      vertex 21 6 6
      vertex 6.5 6 5
      vertex 6.45442 6 5.52094
    endloop
  endfacet
  facet normal 0 1 0
    outer loop
      vertex 21 6 6
      vertex 6.45442 6 4.47906
      vertex 6.5 6 5
    endloop
  endfacet
  facet normal 0 1 0
    outer loop
      vertex 21 6 6
      vertex 6.31908 6 3.97394
      vertex 6.45442 6 4.47906
    endloop
  endfacet
  facet normal 0 1 0
    outer loop
      vertex 21 6 6
      vertex 6.09808 6 3.5
      vertex 6.31908 6 3.97394
    endloop
  endfacet
  facet normal 0 1 0
    outer loop
      vertex 25 6 0
      vertex 6.09808 6 3.5
      vertex 21 6 6
    endloop
  endfacet
  facet normal 0 1 0
    outer loop
      vertex 6.09808 6 3.5
      vertex 25 6 0
      vertex 5.79813 6 3.07164
    endloop
  endfacet
  facet normal 0 1 0
    outer loop
      vertex 5.79813 6 3.07164
      vertex 25 6 0
      vertex 5.42836 6 2.70187
    endloop
  endfacet
  facet normal 0 1 0
    outer loop
      vertex 5.42836 6 2.70187
      vertex 25 6 0
      vertex 5 6 2.40192
    endloop
  endfacet
  facet normal 0 1 0
    outer loop
      vertex 5 6 2.40192
      vertex 25 6 0
      vertex 4.52606 6 2.18092
    endloop
  endfacet
  facet normal 0 1 0
    outer loop
      vertex 3.5 6 2
      vertex 25 6 0
      vertex -3.5 6 2
    endloop
  endfacet
  facet normal 0 1 0
    outer loop
      vertex 4.02094 6 2.04558
      vertex 25 6 0
      vertex 3.5 6 2
    endloop
  endfacet
  facet normal 0 1 0
    outer loop
      vertex 4.52606 6 2.18092
      vertex 25 6 0
      vertex 4.02094 6 2.04558
    endloop
  endfacet
  facet normal 0 1 -0
    outer loop
      vertex 25 6 0
      vertex 21 6 6
      vertex 25 6 22
    endloop
  endfacet
  facet normal 0 1 0
    outer loop
      vertex -6.32606 6 6
      vertex -6.45442 6 5.52094
      vertex -21 6 6
    endloop
  endfacet
  facet normal 0 1 0
    outer loop
      vertex -21 6 7
      vertex -21 6 6
      vertex -23 6 7
    endloop
  endfacet
  facet normal 0 1 0
    outer loop
      vertex -23 6 17
      vertex -21 6 22
      vertex -21 6 17
    endloop
  endfacet
  facet normal 0 1 0
    outer loop
      vertex -21 6 22
      vertex -23 6 17
      vertex -25 6 22
    endloop
  endfacet
  facet normal 0 1 -0
    outer loop
      vertex -23 6 7
      vertex -25 6 22
      vertex -23 6 17
    endloop
  endfacet
  facet normal 0 1 -0
    outer loop
      vertex -6.5 6 5
      vertex -21 6 6
      vertex -6.45442 6 5.52094
    endloop
  endfacet
  facet normal 0 1 0
    outer loop
      vertex -6.45442 6 4.47906
      vertex -21 6 6
      vertex -6.5 6 5
    endloop
  endfacet
  facet normal 0 1 0
    outer loop
      vertex -6.31908 6 3.97394
      vertex -21 6 6
      vertex -6.45442 6 4.47906
    endloop
  endfacet
  facet normal 0 1 0
    outer loop
      vertex -6.09808 6 3.5
      vertex -21 6 6
      vertex -6.31908 6 3.97394
    endloop
  endfacet
  facet normal 0 1 0
    outer loop
      vertex -25 6 0
      vertex -6.09808 6 3.5
      vertex -5.79813 6 3.07164
    endloop
  endfacet
  facet normal 0 1 0
    outer loop
      vertex -25 6 0
      vertex -5.79813 6 3.07164
      vertex -5.42836 6 2.70187
    endloop
  endfacet
  facet normal 0 1 0
    outer loop
      vertex -25 6 0
      vertex -5.42836 6 2.70187
      vertex -5 6 2.40192
    endloop
  endfacet
  facet normal 0 1 0
    outer loop
      vertex -25 6 0
      vertex -5 6 2.40192
      vertex -4.52606 6 2.18092
    endloop
  endfacet
  facet normal 0 1 0
    outer loop
      vertex -25 6 0
      vertex -4.52606 6 2.18092
      vertex -4.02094 6 2.04558
    endloop
  endfacet
  facet normal 0 1 0
    outer loop
      vertex -23 6 7
      vertex -25 6 0
      vertex -25 6 22
    endloop
  endfacet
  facet normal 0 1 0
    outer loop
      vertex -21 6 6
      vertex -25 6 0
      vertex -23 6 7
    endloop
  endfacet
  facet normal 0 1 0
    outer loop
      vertex -6.09808 6 3.5
      vertex -25 6 0
      vertex -21 6 6
    endloop
  endfacet
  facet normal 0 1 0
    outer loop
      vertex -3.5 6 2
      vertex -25 6 0
      vertex -4.02094 6 2.04558
    endloop
  endfacet
  facet normal 0 1 0
    outer loop
      vertex -25 6 0
      vertex -3.5 6 2
      vertex 25 6 0
    endloop
  endfacet
  facet normal 0 0 -1
    outer loop
      vertex -23 4.3 17
      vertex -21 6 17
      vertex -21 4.3 17
    endloop
  endfacet
  facet normal -0 0 -1
    outer loop
      vertex -21 6 17
      vertex -23 4.3 17
      vertex -23 6 17
    endloop
  endfacet
  facet normal -0 0 1
    outer loop
      vertex -23 6 7
      vertex -21 4.3 7
      vertex -21 6 7
    endloop
  endfacet
  facet normal 0 0 1
    outer loop
      vertex -21 4.3 7
      vertex -23 6 7
      vertex -23 4.3 7
    endloop
  endfacet
  facet normal 1 -0 0
    outer loop
      vertex -23 4.3 17
      vertex -23 6 7
      vertex -23 6 17
    endloop
  endfacet
  facet normal 1 0 0
    outer loop
      vertex -23 6 7
      vertex -23 4.3 17
      vertex -23 4.3 7
    endloop
  endfacet
  facet normal 1 -0 0
    outer loop
      vertex -23.3 1.7 22
      vertex -23.3 4.3 1.7
      vertex -23.3 4.3 22
    endloop
  endfacet
  facet normal 1 0 0
    outer loop
      vertex -23.3 4.3 1.7
      vertex -23.3 1.7 22
      vertex -23.3 1.7 1.7
    endloop
  endfacet
  facet normal 0 -1 0
    outer loop
      vertex -23.3 4.3 22
      vertex -23 4.3 17
      vertex -21 4.3 22
    endloop
  endfacet
  facet normal 0 -1 0
    outer loop
      vertex -23.3 4.3 22
      vertex -23 4.3 7
      vertex -23 4.3 17
    endloop
  endfacet
  facet normal 0 -1 0
    outer loop
      vertex -23 4.3 7
      vertex -21 4.3 6
      vertex -21 4.3 7
    endloop
  endfacet
  facet normal 0 -1 0
    outer loop
      vertex -21 4.3 6
      vertex -6.45442 4.3 5.52094
      vertex -6.32606 4.3 6
    endloop
  endfacet
  facet normal 0 -1 0
    outer loop
      vertex -21 4.3 6
      vertex -6.5 4.3 5
      vertex -6.45442 4.3 5.52094
    endloop
  endfacet
  facet normal 0 -1 0
    outer loop
      vertex -21 4.3 6
      vertex -6.45442 4.3 4.47906
      vertex -6.5 4.3 5
    endloop
  endfacet
  facet normal 0 -1 0
    outer loop
      vertex -21 4.3 6
      vertex -6.31908 4.3 3.97394
      vertex -6.45442 4.3 4.47906
    endloop
  endfacet
  facet normal 0 -1 0
    outer loop
      vertex -21 4.3 6
      vertex -6.09808 4.3 3.5
      vertex -6.31908 4.3 3.97394
    endloop
  endfacet
  facet normal 0 -1 0
    outer loop
      vertex -23.3 4.3 1.7
      vertex -6.09808 4.3 3.5
      vertex -21 4.3 6
    endloop
  endfacet
  facet normal 0 -1 -0
    outer loop
      vertex -6.09808 4.3 3.5
      vertex -23.3 4.3 1.7
      vertex -5.79813 4.3 3.07164
    endloop
  endfacet
  facet normal 0 -1 -0
    outer loop
      vertex -5.79813 4.3 3.07164
      vertex -23.3 4.3 1.7
      vertex -5.42836 4.3 2.70187
    endloop
  endfacet
  facet normal 0 -1 -0
    outer loop
      vertex -5.42836 4.3 2.70187
      vertex -23.3 4.3 1.7
      vertex -5 4.3 2.40192
    endloop
  endfacet
  facet normal 0 -1 -0
    outer loop
      vertex -5 4.3 2.40192
      vertex -23.3 4.3 1.7
      vertex -4.52606 4.3 2.18092
    endloop
  endfacet
  facet normal 0 -1 -0
    outer loop
      vertex -3.5 4.3 2
      vertex -23.3 4.3 1.7
      vertex 3.5 4.3 2
    endloop
  endfacet
  facet normal 0 -1 -0
    outer loop
      vertex -4.02094 4.3 2.04558
      vertex -23.3 4.3 1.7
      vertex -3.5 4.3 2
    endloop
  endfacet
  facet normal 0 -1 -0
    outer loop
      vertex -4.52606 4.3 2.18092
      vertex -23.3 4.3 1.7
      vertex -4.02094 4.3 2.04558
    endloop
  endfacet
  facet normal 0 -1 -0
    outer loop
      vertex -23 4.3 7
      vertex -23.3 4.3 1.7
      vertex -21 4.3 6
    endloop
  endfacet
  facet normal 0 -1 0
    outer loop
      vertex -23.3 4.3 1.7
      vertex -23 4.3 7
      vertex -23.3 4.3 22
    endloop
  endfacet
  facet normal 0 -1 -0
    outer loop
      vertex -21 4.3 22
      vertex -23 4.3 17
      vertex -21 4.3 17
    endloop
  endfacet
  facet normal 0 -1 0
    outer loop
      vertex 6.32606 4.3 6
      vertex 6.45442 4.3 5.52094
      vertex 21 4.3 6
    endloop
  endfacet
  facet normal 0 -1 0
    outer loop
      vertex 21 4.3 6
      vertex 23.3 4.3 22
      vertex 21 4.3 22
    endloop
  endfacet
  facet normal 0 -1 0
    outer loop
      vertex 6.5 4.3 5
      vertex 21 4.3 6
      vertex 6.45442 4.3 5.52094
    endloop
  endfacet
  facet normal 0 -1 0
    outer loop
      vertex 6.45442 4.3 4.47906
      vertex 21 4.3 6
      vertex 6.5 4.3 5
    endloop
  endfacet
  facet normal 0 -1 0
    outer loop
      vertex 6.31908 4.3 3.97394
      vertex 21 4.3 6
      vertex 6.45442 4.3 4.47906
    endloop
  endfacet
  facet normal 0 -1 0
    outer loop
      vertex 6.09808 4.3 3.5
      vertex 21 4.3 6
      vertex 6.31908 4.3 3.97394
    endloop
  endfacet
  facet normal 0 -1 0
    outer loop
      vertex 23.3 4.3 1.7
      vertex 6.09808 4.3 3.5
      vertex 5.79813 4.3 3.07164
    endloop
  endfacet
  facet normal 0 -1 0
    outer loop
      vertex 23.3 4.3 1.7
      vertex 5.79813 4.3 3.07164
      vertex 5.42836 4.3 2.70187
    endloop
  endfacet
  facet normal 0 -1 0
    outer loop
      vertex 23.3 4.3 1.7
      vertex 5.42836 4.3 2.70187
      vertex 5 4.3 2.40192
    endloop
  endfacet
  facet normal 0 -1 0
    outer loop
      vertex 23.3 4.3 1.7
      vertex 5 4.3 2.40192
      vertex 4.52606 4.3 2.18092
    endloop
  endfacet
  facet normal 0 -1 0
    outer loop
      vertex 23.3 4.3 1.7
      vertex 4.52606 4.3 2.18092
      vertex 4.02094 4.3 2.04558
    endloop
  endfacet
  facet normal 0 -1 0
    outer loop
      vertex 21 4.3 6
      vertex 23.3 4.3 1.7
      vertex 23.3 4.3 22
    endloop
  endfacet
  facet normal 0 -1 0
    outer loop
      vertex 6.09808 4.3 3.5
      vertex 23.3 4.3 1.7
      vertex 21 4.3 6
    endloop
  endfacet
  facet normal 0 -1 0
    outer loop
      vertex 3.5 4.3 2
      vertex 23.3 4.3 1.7
      vertex 4.02094 4.3 2.04558
    endloop
  endfacet
  facet normal 0 -1 0
    outer loop
      vertex 23.3 4.3 1.7
      vertex 3.5 4.3 2
      vertex -23.3 4.3 1.7
    endloop
  endfacet
  facet normal 0.96592 0 -0.25884
    outer loop
      vertex -21 0 14.8601
      vertex -21.3709 1.7 13.476
      vertex -21 1.7 14.8601
    endloop
  endfacet
  facet normal 0.96592 0 -0.25884
    outer loop
      vertex -21.3709 1.7 13.476
      vertex -21 0 14.8601
      vertex -21.3709 0 13.476
    endloop
  endfacet
  facet normal 0.996197 0 -0.0871335
    outer loop
      vertex -21.3709 0 13.476
      vertex -21.5 1.7 12
      vertex -21.3709 1.7 13.476
    endloop
  endfacet
  facet normal 0.996197 0 -0.0871335
    outer loop
      vertex -21.5 1.7 12
      vertex -21.3709 0 13.476
      vertex -21.5 0 12
    endloop
  endfacet
  facet normal 0.996197 -0 0.0871335
    outer loop
      vertex -21.5 0 12
      vertex -21.3709 1.7 10.524
      vertex -21.5 1.7 12
    endloop
  endfacet
  facet normal 0.996197 0 0.0871335
    outer loop
      vertex -21.3709 1.7 10.524
      vertex -21.5 0 12
      vertex -21.3709 0 10.524
    endloop
  endfacet
  facet normal -0.965989 0 0.258582
    outer loop
      vertex 20.9874 0 9.09283
      vertex 21 1.7 9.1399
      vertex 20.9874 1.7 9.09283
    endloop
  endfacet
  facet normal -0.965923 -7.38559e-06 0.258831
    outer loop
      vertex 21.3709 0 10.524
      vertex 21 1.7 9.1399
      vertex 20.9874 0 9.09283
    endloop
  endfacet
  facet normal -0.96592 0 0.25884
    outer loop
      vertex 21 1.7 9.1399
      vertex 21.3709 0 10.524
      vertex 21.3709 1.7 10.524
    endloop
  endfacet
  facet normal -0.706486 0 0.707727
    outer loop
      vertex 18.4637 0 5.48862
      vertex 18.4751 1.7 5.5
      vertex 18.4637 1.7 5.48862
    endloop
  endfacet
  facet normal -0.707107 8.3189e-06 0.707107
    outer loop
      vertex 18.4751 1.7 5.5
      vertex 18.4637 0 5.48862
      vertex 19.5114 1.7 6.5363
    endloop
  endfacet
  facet normal -0.7071 0 0.707114
    outer loop
      vertex 19.5114 1.7 6.5363
      vertex 18.4637 0 5.48862
      vertex 19.5114 0 6.5363
    endloop
  endfacet
  facet normal -0.819165 0 0.573557
    outer loop
      vertex 19.5114 0 6.5363
      vertex 20.3612 1.7 7.75
      vertex 19.5114 1.7 6.5363
    endloop
  endfacet
  facet normal -0.819165 0 0.573557
    outer loop
      vertex 20.3612 1.7 7.75
      vertex 19.5114 0 6.5363
      vertex 20.3612 0 7.75
    endloop
  endfacet
  facet normal -0.906301 0 0.422634
    outer loop
      vertex 20.3612 0 7.75
      vertex 20.9874 1.7 9.09283
      vertex 20.3612 1.7 7.75
    endloop
  endfacet
  facet normal -0.906301 0 0.422634
    outer loop
      vertex 20.9874 1.7 9.09283
      vertex 20.3612 0 7.75
      vertex 20.9874 0 9.09283
    endloop
  endfacet
  facet normal 1 -0 0
    outer loop
      vertex 25 0 22
      vertex 25 6 0
      vertex 25 6 22
    endloop
  endfacet
  facet normal 1 0 0
    outer loop
      vertex 25 6 0
      vertex 25 0 22
      vertex 25 0 0
    endloop
  endfacet
  facet normal 0 0 1
    outer loop
      vertex 25 6 22
      vertex 23.3 4.3 22
      vertex 25 0 22
    endloop
  endfacet
  facet normal -0 0 1
    outer loop
      vertex 21 6 22
      vertex 23.3 4.3 22
      vertex 25 6 22
    endloop
  endfacet
  facet normal 0 0 1
    outer loop
      vertex 23.3 4.3 22
      vertex 21 6 22
      vertex 21 4.3 22
    endloop
  endfacet
  facet normal -0 0 1
    outer loop
      vertex 23.3 1.7 22
      vertex 25 0 22
      vertex 23.3 4.3 22
    endloop
  endfacet
  facet normal 0 0 1
    outer loop
      vertex 21 0 22
      vertex 23.3 1.7 22
      vertex 21 1.7 22
    endloop
  endfacet
  facet normal 0 0 1
    outer loop
      vertex 23.3 1.7 22
      vertex 21 0 22
      vertex 25 0 22
    endloop
  endfacet
  facet normal -1 0 0
    outer loop
      vertex 21 4.3 6
      vertex 21 6 22
      vertex 21 6 6
    endloop
  endfacet
  facet normal -1 -0 0
    outer loop
      vertex 21 6 22
      vertex 21 4.3 6
      vertex 21 4.3 22
    endloop
  endfacet
  facet normal -1 0 0
    outer loop
      vertex 21 0 14.8601
      vertex 21 1.7 22
      vertex 21 1.7 14.8601
    endloop
  endfacet
  facet normal -1 -0 0
    outer loop
      vertex 21 1.7 22
      vertex 21 0 14.8601
      vertex 21 0 22
    endloop
  endfacet
  facet normal -1 0 0
    outer loop
      vertex 23.3 1.7 1.7
      vertex 23.3 4.3 22
      vertex 23.3 4.3 1.7
    endloop
  endfacet
  facet normal -1 -0 0
    outer loop
      vertex 23.3 4.3 22
      vertex 23.3 1.7 1.7
      vertex 23.3 1.7 22
    endloop
  endfacet
  facet normal -0.96592 0 -0.25884
    outer loop
      vertex 21.3709 0 13.476
      vertex 21 1.7 14.8601
      vertex 21.3709 1.7 13.476
    endloop
  endfacet
  facet normal -0.96592 -0 -0.25884
    outer loop
      vertex 21 1.7 14.8601
      vertex 21.3709 0 13.476
      vertex 21 0 14.8601
    endloop
  endfacet
  facet normal -0.996197 0 -0.0871335
    outer loop
      vertex 21.5 0 12
      vertex 21.3709 1.7 13.476
      vertex 21.5 1.7 12
    endloop
  endfacet
  facet normal -0.996197 -0 -0.0871335
    outer loop
      vertex 21.3709 1.7 13.476
      vertex 21.5 0 12
      vertex 21.3709 0 13.476
    endloop
  endfacet
  facet normal -0.996197 0 0.0871335
    outer loop
      vertex 21.3709 0 10.524
      vertex 21.5 1.7 12
      vertex 21.3709 1.7 10.524
    endloop
  endfacet
  facet normal -0.996197 0 0.0871335
    outer loop
      vertex 21.5 1.7 12
      vertex 21.3709 0 10.524
      vertex 21.5 0 12
    endloop
  endfacet
  facet normal 0 0 -1
    outer loop
      vertex -25 0 0
      vertex 25 6 0
      vertex 25 0 0
    endloop
  endfacet
  facet normal -0 0 -1
    outer loop
      vertex 25 6 0
      vertex -25 0 0
      vertex -25 6 0
    endloop
  endfacet
  facet normal -0.258813 0 0.965927
    outer loop
      vertex -11.524 1.7 3.62913
      vertex -10.0928 0 4.01261
      vertex -10.0928 1.7 4.01261
    endloop
  endfacet
  facet normal -0.258813 0 0.965927
    outer loop
      vertex -10.0928 0 4.01261
      vertex -11.524 1.7 3.62913
      vertex -11.524 0 3.62913
    endloop
  endfacet
  facet normal 0.0871536 0 0.996195
    outer loop
      vertex -14.476 1.7 3.62913
      vertex -13 0 3.5
      vertex -13 1.7 3.5
    endloop
  endfacet
  facet normal 0.0871536 0 0.996195
    outer loop
      vertex -13 0 3.5
      vertex -14.476 1.7 3.62913
      vertex -14.476 0 3.62913
    endloop
  endfacet
  facet normal -0.707107 0 0.707107
    outer loop
      vertex -7.53631 0 5.48862
      vertex -7.02493 1.7 6
      vertex -7.53631 1.7 5.48862
    endloop
  endfacet
  facet normal -0.707107 0 0.707107
    outer loop
      vertex -7.02493 1.7 6
      vertex -7.53631 0 5.48862
      vertex -7.02493 0 6
    endloop
  endfacet
  facet normal -0.422625 0 0.906305
    outer loop
      vertex -10.0928 1.7 4.01261
      vertex -8.75 0 4.63878
      vertex -8.75 1.7 4.63878
    endloop
  endfacet
  facet normal -0.422625 0 0.906305
    outer loop
      vertex -8.75 0 4.63878
      vertex -10.0928 1.7 4.01261
      vertex -10.0928 0 4.01261
    endloop
  endfacet
  facet normal 0.573576 0 0.819153
    outer loop
      vertex -18.4637 1.7 5.48862
      vertex -17.25 0 4.63878
      vertex -17.25 1.7 4.63878
    endloop
  endfacet
  facet normal 0.573576 0 0.819153
    outer loop
      vertex -17.25 0 4.63878
      vertex -18.4637 1.7 5.48862
      vertex -18.4637 0 5.48862
    endloop
  endfacet
  facet normal 0.422625 0 0.906305
    outer loop
      vertex -17.25 1.7 4.63878
      vertex -15.9072 0 4.01261
      vertex -15.9072 1.7 4.01261
    endloop
  endfacet
  facet normal 0.422625 0 0.906305
    outer loop
      vertex -15.9072 0 4.01261
      vertex -17.25 1.7 4.63878
      vertex -17.25 0 4.63878
    endloop
  endfacet
  facet normal -0.573579 0 0.81915
    outer loop
      vertex -8.75 1.7 4.63878
      vertex -7.53631 0 5.48862
      vertex -7.53631 1.7 5.48862
    endloop
  endfacet
  facet normal -0.573579 0 0.81915
    outer loop
      vertex -7.53631 0 5.48862
      vertex -8.75 1.7 4.63878
      vertex -8.75 0 4.63878
    endloop
  endfacet
  facet normal -0.0871536 0 0.996195
    outer loop
      vertex -13 1.7 3.5
      vertex -11.524 0 3.62913
      vertex -11.524 1.7 3.62913
    endloop
  endfacet
  facet normal -0.0871536 0 0.996195
    outer loop
      vertex -11.524 0 3.62913
      vertex -13 1.7 3.5
      vertex -13 0 3.5
    endloop
  endfacet
  facet normal 0.258813 0 0.965927
    outer loop
      vertex -15.9072 1.7 4.01261
      vertex -14.476 0 3.62913
      vertex -14.476 1.7 3.62913
    endloop
  endfacet
  facet normal 0.258813 0 0.965927
    outer loop
      vertex -14.476 0 3.62913
      vertex -15.9072 1.7 4.01261
      vertex -15.9072 0 4.01261
    endloop
  endfacet
  facet normal -0.258813 0 0.965927
    outer loop
      vertex 14.476 1.7 3.62913
      vertex 15.9072 0 4.01261
      vertex 15.9072 1.7 4.01261
    endloop
  endfacet
  facet normal -0.258813 0 0.965927
    outer loop
      vertex 15.9072 0 4.01261
      vertex 14.476 1.7 3.62913
      vertex 14.476 0 3.62913
    endloop
  endfacet
  facet normal 0.0871536 0 0.996195
    outer loop
      vertex 11.524 1.7 3.62913
      vertex 13 0 3.5
      vertex 13 1.7 3.5
    endloop
  endfacet
  facet normal 0.0871536 0 0.996195
    outer loop
      vertex 13 0 3.5
      vertex 11.524 1.7 3.62913
      vertex 11.524 0 3.62913
    endloop
  endfacet
  facet normal -0.422625 0 0.906305
    outer loop
      vertex 15.9072 1.7 4.01261
      vertex 17.25 0 4.63878
      vertex 17.25 1.7 4.63878
    endloop
  endfacet
  facet normal -0.422625 0 0.906305
    outer loop
      vertex 17.25 0 4.63878
      vertex 15.9072 1.7 4.01261
      vertex 15.9072 0 4.01261
    endloop
  endfacet
  facet normal 0.573576 0 0.819153
    outer loop
      vertex 7.5363 1.7 5.48862
      vertex 8.75 0 4.63878
      vertex 8.75 1.7 4.63878
    endloop
  endfacet
  facet normal 0.573576 0 0.819153
    outer loop
      vertex 8.75 0 4.63878
      vertex 7.5363 1.7 5.48862
      vertex 7.5363 0 5.48862
    endloop
  endfacet
  facet normal 0.422625 0 0.906305
    outer loop
      vertex 8.75 1.7 4.63878
      vertex 10.0928 0 4.01261
      vertex 10.0928 1.7 4.01261
    endloop
  endfacet
  facet normal 0.422625 0 0.906305
    outer loop
      vertex 10.0928 0 4.01261
      vertex 8.75 1.7 4.63878
      vertex 8.75 0 4.63878
    endloop
  endfacet
  facet normal -0.573576 0 0.819153
    outer loop
      vertex 17.25 1.7 4.63878
      vertex 18.4637 0 5.48862
      vertex 18.4637 1.7 5.48862
    endloop
  endfacet
  facet normal -0.573576 0 0.819153
    outer loop
      vertex 18.4637 0 5.48862
      vertex 17.25 1.7 4.63878
      vertex 17.25 0 4.63878
    endloop
  endfacet
  facet normal -0.0871536 0 0.996195
    outer loop
      vertex 13 1.7 3.5
      vertex 14.476 0 3.62913
      vertex 14.476 1.7 3.62913
    endloop
  endfacet
  facet normal -0.0871536 0 0.996195
    outer loop
      vertex 14.476 0 3.62913
      vertex 13 1.7 3.5
      vertex 13 0 3.5
    endloop
  endfacet
  facet normal 0.707114 -0 0.7071
    outer loop
      vertex 7.02493 0 6
      vertex 7.5363 1.7 5.48862
      vertex 7.02493 1.7 6
    endloop
  endfacet
  facet normal 0.707114 0 0.7071
    outer loop
      vertex 7.5363 1.7 5.48862
      vertex 7.02493 0 6
      vertex 7.5363 0 5.48862
    endloop
  endfacet
  facet normal 0.258813 0 0.965927
    outer loop
      vertex 10.0928 1.7 4.01261
      vertex 11.524 0 3.62913
      vertex 11.524 1.7 3.62913
    endloop
  endfacet
  facet normal 0.258813 0 0.965927
    outer loop
      vertex 11.524 0 3.62913
      vertex 10.0928 1.7 4.01261
      vertex 10.0928 0 4.01261
    endloop
  endfacet
  facet normal 0.422615 0 0.906309
    outer loop
      vertex -5 6 2.40192
      vertex -4.52606 4.3 2.18092
      vertex -4.52606 6 2.18092
    endloop
  endfacet
  facet normal 0.422615 0 0.906309
    outer loop
      vertex -4.52606 4.3 2.18092
      vertex -5 6 2.40192
      vertex -5 4.3 2.40192
    endloop
  endfacet
  facet normal 0.422615 0 0.906309
    outer loop
      vertex -5 1.7 2.40192
      vertex -4.52606 0 2.18092
      vertex -4.52606 1.7 2.18092
    endloop
  endfacet
  facet normal 0.422615 0 0.906309
    outer loop
      vertex -4.52606 0 2.18092
      vertex -5 1.7 2.40192
      vertex -5 0 2.40192
    endloop
  endfacet
  facet normal -0.996194 0 0.0871627
    outer loop
      vertex 6.45442 4.3 4.47906
      vertex 6.5 6 5
      vertex 6.45442 6 4.47906
    endloop
  endfacet
  facet normal -0.996194 0 0.0871627
    outer loop
      vertex 6.5 6 5
      vertex 6.45442 4.3 4.47906
      vertex 6.5 4.3 5
    endloop
  endfacet
  facet normal -0.996194 0 0.0871627
    outer loop
      vertex 6.45442 0 4.47906
      vertex 6.5 1.7 5
      vertex 6.45442 1.7 4.47906
    endloop
  endfacet
  facet normal -0.996194 0 0.0871627
    outer loop
      vertex 6.5 1.7 5
      vertex 6.45442 0 4.47906
      vertex 6.5 0 5
    endloop
  endfacet
  facet normal -0.707107 0 0.707107
    outer loop
      vertex 5.42836 4.3 2.70187
      vertex 5.79813 6 3.07164
      vertex 5.42836 6 2.70187
    endloop
  endfacet
  facet normal -0.707107 0 0.707107
    outer loop
      vertex 5.79813 6 3.07164
      vertex 5.42836 4.3 2.70187
      vertex 5.79813 4.3 3.07164
    endloop
  endfacet
  facet normal -0.707107 0 0.707107
    outer loop
      vertex 5.42836 0 2.70187
      vertex 5.79813 1.7 3.07164
      vertex 5.42836 1.7 2.70187
    endloop
  endfacet
  facet normal -0.707107 0 0.707107
    outer loop
      vertex 5.79813 1.7 3.07164
      vertex 5.42836 0 2.70187
      vertex 5.79813 0 3.07164
    endloop
  endfacet
  facet normal 0.0871627 0 0.996194
    outer loop
      vertex -4.02094 6 2.04558
      vertex -3.5 4.3 2
      vertex -3.5 6 2
    endloop
  endfacet
  facet normal 0.0871627 0 0.996194
    outer loop
      vertex -3.5 4.3 2
      vertex -4.02094 6 2.04558
      vertex -4.02094 4.3 2.04558
    endloop
  endfacet
  facet normal 0.0871627 0 0.996194
    outer loop
      vertex -4.02094 1.7 2.04558
      vertex -3.5 0 2
      vertex -3.5 1.7 2
    endloop
  endfacet
  facet normal 0.0871627 0 0.996194
    outer loop
      vertex -3.5 0 2
      vertex -4.02094 1.7 2.04558
      vertex -4.02094 0 2.04558
    endloop
  endfacet
  facet normal 0.906309 -0 0.422615
    outer loop
      vertex -6.31908 4.3 3.97394
      vertex -6.09808 6 3.5
      vertex -6.31908 6 3.97394
    endloop
  endfacet
  facet normal 0.906309 0 0.422615
    outer loop
      vertex -6.09808 6 3.5
      vertex -6.31908 4.3 3.97394
      vertex -6.09808 4.3 3.5
    endloop
  endfacet
  facet normal 0.906309 -0 0.422615
    outer loop
      vertex -6.31908 0 3.97394
      vertex -6.09808 1.7 3.5
      vertex -6.31908 1.7 3.97394
    endloop
  endfacet
  facet normal 0.906309 0 0.422615
    outer loop
      vertex -6.09808 1.7 3.5
      vertex -6.31908 0 3.97394
      vertex -6.09808 0 3.5
    endloop
  endfacet
  facet normal -0.258807 0 0.965929
    outer loop
      vertex 4.02094 6 2.04558
      vertex 4.52606 4.3 2.18092
      vertex 4.52606 6 2.18092
    endloop
  endfacet
  facet normal -0.258807 0 0.965929
    outer loop
      vertex 4.52606 4.3 2.18092
      vertex 4.02094 6 2.04558
      vertex 4.02094 4.3 2.04558
    endloop
  endfacet
  facet normal -0.258807 0 0.965929
    outer loop
      vertex 4.02094 1.7 2.04558
      vertex 4.52606 0 2.18092
      vertex 4.52606 1.7 2.18092
    endloop
  endfacet
  facet normal -0.258807 0 0.965929
    outer loop
      vertex 4.52606 0 2.18092
      vertex 4.02094 1.7 2.04558
      vertex 4.02094 0 2.04558
    endloop
  endfacet
  facet normal 0.965929 -0 0.258807
    outer loop
      vertex -6.45442 4.3 4.47906
      vertex -6.31908 6 3.97394
      vertex -6.45442 6 4.47906
    endloop
  endfacet
  facet normal 0.965929 0 0.258807
    outer loop
      vertex -6.31908 6 3.97394
      vertex -6.45442 4.3 4.47906
      vertex -6.31908 4.3 3.97394
    endloop
  endfacet
  facet normal 0.965929 -0 0.258807
    outer loop
      vertex -6.45442 0 4.47906
      vertex -6.31908 1.7 3.97394
      vertex -6.45442 1.7 4.47906
    endloop
  endfacet
  facet normal 0.965929 0 0.258807
    outer loop
      vertex -6.31908 1.7 3.97394
      vertex -6.45442 0 4.47906
      vertex -6.31908 0 3.97394
    endloop
  endfacet
  facet normal 0.573588 0 0.819144
    outer loop
      vertex -5.42836 6 2.70187
      vertex -5 4.3 2.40192
      vertex -5 6 2.40192
    endloop
  endfacet
  facet normal 0.573588 0 0.819144
    outer loop
      vertex -5 4.3 2.40192
      vertex -5.42836 6 2.70187
      vertex -5.42836 4.3 2.70187
    endloop
  endfacet
  facet normal 0.573588 0 0.819144
    outer loop
      vertex -5.42836 1.7 2.70187
      vertex -5 0 2.40192
      vertex -5 1.7 2.40192
    endloop
  endfacet
  facet normal 0.573588 0 0.819144
    outer loop
      vertex -5 0 2.40192
      vertex -5.42836 1.7 2.70187
      vertex -5.42836 0 2.70187
    endloop
  endfacet
  facet normal -0.965928 0 -0.258812
    outer loop
      vertex 6.45442 4.3 5.52094
      vertex 6.32606 6 6
      vertex 6.45442 6 5.52094
    endloop
  endfacet
  facet normal -0.965928 -0 -0.258812
    outer loop
      vertex 6.32606 6 6
      vertex 6.45442 4.3 5.52094
      vertex 6.32606 4.3 6
    endloop
  endfacet
  facet normal -0.965928 0 -0.258812
    outer loop
      vertex 6.45442 0 5.52094
      vertex 6.32606 1.7 6
      vertex 6.45442 1.7 5.52094
    endloop
  endfacet
  facet normal -0.965928 -0 -0.258812
    outer loop
      vertex 6.32606 1.7 6
      vertex 6.45442 0 5.52094
      vertex 6.32606 0 6
    endloop
  endfacet
  facet normal -0 0 1
    outer loop
      vertex -3.5 6 2
      vertex 3.5 4.3 2
      vertex 3.5 6 2
    endloop
  endfacet
  facet normal 0 0 1
    outer loop
      vertex 3.5 4.3 2
      vertex -3.5 6 2
      vertex -3.5 4.3 2
    endloop
  endfacet
  facet normal -0 0 1
    outer loop
      vertex -3.5 1.7 2
      vertex 3.5 0 2
      vertex 3.5 1.7 2
    endloop
  endfacet
  facet normal 0 0 1
    outer loop
      vertex 3.5 0 2
      vertex -3.5 1.7 2
      vertex -3.5 0 2
    endloop
  endfacet
  facet normal -0.422615 0 0.906309
    outer loop
      vertex 4.52606 6 2.18092
      vertex 5 4.3 2.40192
      vertex 5 6 2.40192
    endloop
  endfacet
  facet normal -0.422615 0 0.906309
    outer loop
      vertex 5 4.3 2.40192
      vertex 4.52606 6 2.18092
      vertex 4.52606 4.3 2.18092
    endloop
  endfacet
  facet normal -0.422615 0 0.906309
    outer loop
      vertex 4.52606 1.7 2.18092
      vertex 5 0 2.40192
      vertex 5 1.7 2.40192
    endloop
  endfacet
  facet normal -0.422615 0 0.906309
    outer loop
      vertex 5 0 2.40192
      vertex 4.52606 1.7 2.18092
      vertex 4.52606 0 2.18092
    endloop
  endfacet
  facet normal 0.996194 0 -0.0871627
    outer loop
      vertex -6.45442 4.3 5.52094
      vertex -6.5 6 5
      vertex -6.45442 6 5.52094
    endloop
  endfacet
  facet normal 0.996194 0 -0.0871627
    outer loop
      vertex -6.5 6 5
      vertex -6.45442 4.3 5.52094
      vertex -6.5 4.3 5
    endloop
  endfacet
  facet normal 0.996194 0 -0.0871627
    outer loop
      vertex -6.45442 0 5.52094
      vertex -6.5 1.7 5
      vertex -6.45442 1.7 5.52094
    endloop
  endfacet
  facet normal 0.996194 0 -0.0871627
    outer loop
      vertex -6.5 1.7 5
      vertex -6.45442 0 5.52094
      vertex -6.5 0 5
    endloop
  endfacet
  facet normal -0.0871627 0 0.996194
    outer loop
      vertex 3.5 6 2
      vertex 4.02094 4.3 2.04558
      vertex 4.02094 6 2.04558
    endloop
  endfacet
  facet normal -0.0871627 0 0.996194
    outer loop
      vertex 4.02094 4.3 2.04558
      vertex 3.5 6 2
      vertex 3.5 4.3 2
    endloop
  endfacet
  facet normal -0.0871627 0 0.996194
    outer loop
      vertex 3.5 1.7 2
      vertex 4.02094 0 2.04558
      vertex 4.02094 1.7 2.04558
    endloop
  endfacet
  facet normal -0.0871627 0 0.996194
    outer loop
      vertex 4.02094 0 2.04558
      vertex 3.5 1.7 2
      vertex 3.5 0 2
    endloop
  endfacet
  facet normal -0.996194 0 -0.0871627
    outer loop
      vertex 6.5 4.3 5
      vertex 6.45442 6 5.52094
      vertex 6.5 6 5
    endloop
  endfacet
  facet normal -0.996194 -0 -0.0871627
    outer loop
      vertex 6.45442 6 5.52094
      vertex 6.5 4.3 5
      vertex 6.45442 4.3 5.52094
    endloop
  endfacet
  facet normal -0.996194 0 -0.0871627
    outer loop
      vertex 6.5 0 5
      vertex 6.45442 1.7 5.52094
      vertex 6.5 1.7 5
    endloop
  endfacet
  facet normal -0.996194 -0 -0.0871627
    outer loop
      vertex 6.45442 1.7 5.52094
      vertex 6.5 0 5
      vertex 6.45442 0 5.52094
    endloop
  endfacet
  facet normal 0.258807 0 0.965929
    outer loop
      vertex -4.52606 6 2.18092
      vertex -4.02094 4.3 2.04558
      vertex -4.02094 6 2.04558
    endloop
  endfacet
  facet normal 0.258807 0 0.965929
    outer loop
      vertex -4.02094 4.3 2.04558
      vertex -4.52606 6 2.18092
      vertex -4.52606 4.3 2.18092
    endloop
  endfacet
  facet normal 0.258807 0 0.965929
    outer loop
      vertex -4.52606 1.7 2.18092
      vertex -4.02094 0 2.04558
      vertex -4.02094 1.7 2.04558
    endloop
  endfacet
  facet normal 0.258807 0 0.965929
    outer loop
      vertex -4.02094 0 2.04558
      vertex -4.52606 1.7 2.18092
      vertex -4.52606 0 2.18092
    endloop
  endfacet
  facet normal 0.996194 -0 0.0871627
    outer loop
      vertex -6.5 4.3 5
      vertex -6.45442 6 4.47906
      vertex -6.5 6 5
    endloop
  endfacet
  facet normal 0.996194 0 0.0871627
    outer loop
      vertex -6.45442 6 4.47906
      vertex -6.5 4.3 5
      vertex -6.45442 4.3 4.47906
    endloop
  endfacet
  facet normal 0.996194 -0 0.0871627
    outer loop
      vertex -6.5 0 5
      vertex -6.45442 1.7 4.47906
      vertex -6.5 1.7 5
    endloop
  endfacet
  facet normal 0.996194 0 0.0871627
    outer loop
      vertex -6.45442 1.7 4.47906
      vertex -6.5 0 5
      vertex -6.45442 0 4.47906
    endloop
  endfacet
  facet normal -0.573588 0 0.819144
    outer loop
      vertex 5 6 2.40192
      vertex 5.42836 4.3 2.70187
      vertex 5.42836 6 2.70187
    endloop
  endfacet
  facet normal -0.573588 0 0.819144
    outer loop
      vertex 5.42836 4.3 2.70187
      vertex 5 6 2.40192
      vertex 5 4.3 2.40192
    endloop
  endfacet
  facet normal -0.573588 0 0.819144
    outer loop
      vertex 5 1.7 2.40192
      vertex 5.42836 0 2.70187
      vertex 5.42836 1.7 2.70187
    endloop
  endfacet
  facet normal -0.573588 0 0.819144
    outer loop
      vertex 5.42836 0 2.70187
      vertex 5 1.7 2.40192
      vertex 5 0 2.40192
    endloop
  endfacet
  facet normal 0.819144 -0 0.573588
    outer loop
      vertex -6.09808 4.3 3.5
      vertex -5.79813 6 3.07164
      vertex -6.09808 6 3.5
    endloop
  endfacet
  facet normal 0.819144 0 0.573588
    outer loop
      vertex -5.79813 6 3.07164
      vertex -6.09808 4.3 3.5
      vertex -5.79813 4.3 3.07164
    endloop
  endfacet
  facet normal 0.819144 -0 0.573588
    outer loop
      vertex -6.09808 0 3.5
      vertex -5.79813 1.7 3.07164
      vertex -6.09808 1.7 3.5
    endloop
  endfacet
  facet normal 0.819144 0 0.573588
    outer loop
      vertex -5.79813 1.7 3.07164
      vertex -6.09808 0 3.5
      vertex -5.79813 0 3.07164
    endloop
  endfacet
  facet normal -0.965929 0 0.258807
    outer loop
      vertex 6.31908 4.3 3.97394
      vertex 6.45442 6 4.47906
      vertex 6.31908 6 3.97394
    endloop
  endfacet
  facet normal -0.965929 0 0.258807
    outer loop
      vertex 6.45442 6 4.47906
      vertex 6.31908 4.3 3.97394
      vertex 6.45442 4.3 4.47906
    endloop
  endfacet
  facet normal -0.965929 0 0.258807
    outer loop
      vertex 6.31908 0 3.97394
      vertex 6.45442 1.7 4.47906
      vertex 6.31908 1.7 3.97394
    endloop
  endfacet
  facet normal -0.965929 0 0.258807
    outer loop
      vertex 6.45442 1.7 4.47906
      vertex 6.31908 0 3.97394
      vertex 6.45442 0 4.47906
    endloop
  endfacet
  facet normal 0.965928 0 -0.258812
    outer loop
      vertex -6.32606 4.3 6
      vertex -6.45442 6 5.52094
      vertex -6.32606 6 6
    endloop
  endfacet
  facet normal 0.965928 0 -0.258812
    outer loop
      vertex -6.45442 6 5.52094
      vertex -6.32606 4.3 6
      vertex -6.45442 4.3 5.52094
    endloop
  endfacet
  facet normal 0.965928 0 -0.258812
    outer loop
      vertex -6.32606 0 6
      vertex -6.45442 1.7 5.52094
      vertex -6.32606 1.7 6
    endloop
  endfacet
  facet normal 0.965928 0 -0.258812
    outer loop
      vertex -6.45442 1.7 5.52094
      vertex -6.32606 0 6
      vertex -6.45442 0 5.52094
    endloop
  endfacet
  facet normal 0.707107 -0 0.707107
    outer loop
      vertex -5.79813 4.3 3.07164
      vertex -5.42836 6 2.70187
      vertex -5.79813 6 3.07164
    endloop
  endfacet
  facet normal 0.707107 0 0.707107
    outer loop
      vertex -5.42836 6 2.70187
      vertex -5.79813 4.3 3.07164
      vertex -5.42836 4.3 2.70187
    endloop
  endfacet
  facet normal 0.707107 -0 0.707107
    outer loop
      vertex -5.79813 0 3.07164
      vertex -5.42836 1.7 2.70187
      vertex -5.79813 1.7 3.07164
    endloop
  endfacet
  facet normal 0.707107 0 0.707107
    outer loop
      vertex -5.42836 1.7 2.70187
      vertex -5.79813 0 3.07164
      vertex -5.42836 0 2.70187
    endloop
  endfacet
  facet normal -0.906309 0 0.422615
    outer loop
      vertex 6.09808 4.3 3.5
      vertex 6.31908 6 3.97394
      vertex 6.09808 6 3.5
    endloop
  endfacet
  facet normal -0.906309 0 0.422615
    outer loop
      vertex 6.31908 6 3.97394
      vertex 6.09808 4.3 3.5
      vertex 6.31908 4.3 3.97394
    endloop
  endfacet
  facet normal -0.906309 0 0.422615
    outer loop
      vertex 6.09808 0 3.5
      vertex 6.31908 1.7 3.97394
      vertex 6.09808 1.7 3.5
    endloop
  endfacet
  facet normal -0.906309 0 0.422615
    outer loop
      vertex 6.31908 1.7 3.97394
      vertex 6.09808 0 3.5
      vertex 6.31908 0 3.97394
    endloop
  endfacet
  facet normal -0.819144 0 0.573588
    outer loop
      vertex 5.79813 4.3 3.07164
      vertex 6.09808 6 3.5
      vertex 5.79813 6 3.07164
    endloop
  endfacet
  facet normal -0.819144 0 0.573588
    outer loop
      vertex 6.09808 6 3.5
      vertex 5.79813 4.3 3.07164
      vertex 6.09808 4.3 3.5
    endloop
  endfacet
  facet normal -0.819144 0 0.573588
    outer loop
      vertex 5.79813 0 3.07164
      vertex 6.09808 1.7 3.5
      vertex 5.79813 1.7 3.07164
    endloop
  endfacet
  facet normal -0.819144 0 0.573588
    outer loop
      vertex 6.09808 1.7 3.5
      vertex 5.79813 0 3.07164
      vertex 6.09808 0 3.5
    endloop
  endfacet
  facet normal -0 0 1
    outer loop
      vertex -23.3 4.3 1.7
      vertex 23.3 1.7 1.7
      vertex 23.3 4.3 1.7
    endloop
  endfacet
  facet normal 0 0 1
    outer loop
      vertex 23.3 1.7 1.7
      vertex -23.3 4.3 1.7
      vertex -23.3 1.7 1.7
    endloop
  endfacet
endsolid OpenSCAD_Model
